<?xml version="1.0" encoding="utf-8"?>
<!-- Generator: Adobe Illustrator 19.0.0, SVG Export Plug-In . SVG Version: 6.00 Build 0)  -->
<svg version="1.1" id="图层_1" xmlns="http://www.w3.org/2000/svg" xmlns:xlink="http://www.w3.org/1999/xlink" x="0px" y="0px"
	 viewBox="0 0 9 19.5" style="enable-background:new 0 0 9 19.5;" xml:space="preserve">
<style type="text/css">
	.st0{fill-rule:evenodd;clip-rule:evenodd;fill:#666666;}
</style>
<g>
	<path class="st0" d="M8.9,10.1C8.9,10.1,8.9,10.1,8.9,10.1C8.9,10.1,8.9,10.1,8.9,10.1C8.9,10.1,8.9,10.1,8.9,10.1
		C8.9,10.1,8.9,10.1,8.9,10.1C8.9,10.1,8.9,10.1,8.9,10.1C8.9,10,8.9,10,8.9,10.1C8.9,10,8.9,10,8.9,10.1C9,10,9,9.9,9,9.8
		c0,0,0,0,0,0c0,0,0,0,0,0c0,0,0,0,0,0c0,0,0,0,0,0c0,0,0,0,0,0c0,0,0,0,0,0c0,0,0,0,0,0c0,0,0,0,0,0c0,0,0,0,0,0c0,0,0,0,0,0
		c0-0.1,0-0.2-0.1-0.2c0,0,0,0,0,0c0,0,0,0,0,0c0,0,0,0,0,0c0,0,0,0,0,0c0,0,0,0,0,0c0,0,0,0,0,0c0,0,0,0,0,0c0,0,0,0,0,0
		c0,0,0,0,0,0c0,0,0,0,0,0l0,0c0,0,0,0,0,0L1.2,0.2C0.9,0,0.5-0.1,0.2,0.2C0,0.4-0.1,0.8,0.2,1.1l7.3,8.6l-7.3,8.6
		c-0.2,0.3-0.2,0.7,0.1,0.9c0.1,0.1,0.3,0.2,0.4,0.2c0.2,0,0.4-0.1,0.5-0.2L8.9,10.1C8.8,10.2,8.8,10.2,8.9,10.1L8.9,10.1
		C8.8,10.2,8.8,10.2,8.9,10.1C8.9,10.1,8.9,10.1,8.9,10.1C8.9,10.1,8.9,10.1,8.9,10.1L8.9,10.1z"/>
</g>
</svg>
