<?xml version="1.0" encoding="utf-8"?>
<!-- Generator: Adobe Illustrator 19.0.0, SVG Export Plug-In . SVG Version: 6.00 Build 0)  -->
<svg version="1.1" id="图层_1" xmlns="http://www.w3.org/2000/svg" xmlns:xlink="http://www.w3.org/1999/xlink" x="0px" y="0px"
	 viewBox="0 0 33 33.5" style="enable-background:new 0 0 33 33.5;" xml:space="preserve">
<style type="text/css">
	.st0{fill-rule:evenodd;clip-rule:evenodd;fill:#999999;}
</style>
<g>
	<path class="st0" d="M32.5,0.5c0.5,0.5,0.6,1.2,0.2,1.6L16.7,18.1c-0.4,0.4-1.1,0.3-1.6-0.2c-0.5-0.5-0.6-1.2-0.2-1.6L30.9,0.2
		C31.3-0.2,32-0.1,32.5,0.5L32.5,0.5z"/>
	<path class="st0" d="M28.8,13.6V31c0,0.4-0.3,0.7-0.6,0.7H2.6c-0.4,0-0.6-0.3-0.6-0.7V5.1c0-0.4,0.3-0.7,0.6-0.7h17.3V2.5H2.6
		C1.1,2.5,0,3.7,0,5.1V31c0,1.4,1.1,2.6,2.6,2.6h25.6c1.4,0,2.6-1.2,2.6-2.6V13.6H28.8L28.8,13.6z"/>
</g>
</svg>
