<?xml version="1.0" encoding="utf-8"?>
<!-- Generator: Adobe Illustrator 19.0.0, SVG Export Plug-In . SVG Version: 6.00 Build 0)  -->
<svg version="1.1" id="图层_1" xmlns="http://www.w3.org/2000/svg" xmlns:xlink="http://www.w3.org/1999/xlink" x="0px" y="0px"
	 viewBox="0 0 110 110" style="enable-background:new 0 0 110 110;" xml:space="preserve">
<style type="text/css">
	.st0{fill-rule:evenodd;clip-rule:evenodd;fill:#FFFFFF;}
</style>
<g>
	<path class="st0" d="M55,0C24.6,0,0,24.6,0,55s24.6,55,55,55s55-24.6,55-55S85.4,0,55,0L55,0z M55,104.5
		C27.7,104.5,5.5,82.3,5.5,55S27.7,5.5,55,5.5c27.3,0,49.5,22.2,49.5,49.5S82.3,104.5,55,104.5L55,104.5z M78.2,50.8L47.9,33.7
		c-1.6-0.9-3.4-0.9-5,0c-1.6,0.9-2.5,2.4-2.5,4.2v34.2c0,1.8,0.9,3.3,2.5,4.2c1.6,0.9,3.4,0.9,5,0l30.3-17.1
		c1.6-0.9,2.5-2.4,2.5-4.2C80.7,53.2,79.8,51.7,78.2,50.8L78.2,50.8L78.2,50.8z"/>
</g>
</svg>
