<?xml version="1.0" encoding="utf-8"?>
<!-- Generator: Adobe Illustrator 19.0.0, SVG Export Plug-In . SVG Version: 6.00 Build 0)  -->
<svg version="1.1" id="图层_1" xmlns="http://www.w3.org/2000/svg" xmlns:xlink="http://www.w3.org/1999/xlink" x="0px" y="0px"
	 viewBox="0 0 39 39" style="enable-background:new 0 0 39 39;" xml:space="preserve">
<style type="text/css">
	.st0{clip-path:url(#SVGID_2_);fill:#666666;}
</style>
<g>
	<defs>
		<rect id="SVGID_1_" width="39" height="39"/>
	</defs>
	<clipPath id="SVGID_2_">
		<use xlink:href="#SVGID_1_"  style="overflow:visible;"/>
	</clipPath>
	<path class="st0" d="M36.8,19.5c-0.1,7.2-4.6,13.8-11.4,16.3c-6.9,2.5-14.7,0.3-19.3-5.3c-4.6-5.6-5.1-13.7-1.4-19.9
		c3.7-6.1,11.1-9.5,18.2-8C30.9,4.1,36.7,11.3,36.8,19.5c0,1.4,2.2,1.4,2.2,0c-0.1-8.1-5.1-15.4-12.7-18.3C18.6-1.7,9.6,0.8,4.4,7.1
		c-5.2,6.3-5.9,15.4-1.7,22.5c4.2,7,12.6,10.7,20.7,9.1c9-1.8,15.5-10,15.6-19.1C39,18.1,36.8,18.1,36.8,19.5"/>
	<path class="st0" d="M15.5,15.2c0.1-2.7,2.8-4.7,5.4-3.7c1.8,0.7,2.6,2.6,2.5,4.5c0,0.2,0,0-0.1,0.3c0,0.2-0.1,0.3-0.1,0.5
		c-0.1,0.4-0.4,0.7-0.7,1c-1,0.9-2.4,0.9-3.4,1.9c-1.5,1.6-1.2,3.9-1.2,5.9c0,2,3.1,2,3.1,0c0-1.3-0.5-3.5,1-4.1
		c2.2-0.8,4-2.4,4.4-4.8c0.8-4.9-3.3-9.5-8.4-8.5c-3.3,0.7-5.5,3.6-5.6,6.9C12.4,17.2,15.5,17.2,15.5,15.2"/>
	<path class="st0" d="M18.2,30.2C18.2,30.2,18.2,30.2,18.2,30.2c0-0.1,0-0.2,0.1-0.4c0,0,0,0.1,0,0.1c0.1-0.1,0.1-0.2,0.2-0.4
		c0,0,0,0,0,0c0.1-0.1,0.2-0.2,0.2-0.3c0,0,0,0-0.1,0.1c0.1-0.1,0.2-0.2,0.3-0.2c0,0,0,0,0,0c0.1-0.1,0.2-0.1,0.4-0.2
		c0,0-0.1,0-0.1,0c0.1,0,0.3,0,0.4-0.1c0,0,0,0-0.1,0c0.1,0,0.3,0,0.4,0.1c0,0-0.1,0-0.1,0l0.4,0.2c0,0,0,0,0,0
		c0.1,0.1,0.2,0.2,0.3,0.2c0,0,0,0-0.1-0.1c0.1,0.1,0.2,0.2,0.2,0.3c0,0,0,0,0,0c0.1,0.1,0.1,0.2,0.2,0.4c0,0,0-0.1,0-0.1
		c0,0.1,0,0.3,0.1,0.4c0,0,0,0,0-0.1c0,0.1,0,0.3-0.1,0.4c0,0,0-0.1,0-0.1c-0.1,0.1-0.1,0.2-0.2,0.4c0,0,0,0,0,0
		c-0.1,0.1-0.2,0.2-0.2,0.3c0,0,0,0,0.1-0.1c-0.1,0.1-0.2,0.2-0.3,0.2c0,0,0,0,0,0c-0.1,0.1-0.2,0.1-0.4,0.2c0,0,0.1,0,0.1,0
		c-0.1,0-0.3,0-0.4,0.1c0,0,0,0,0.1,0c-0.1,0-0.3,0-0.4-0.1c0,0,0.1,0,0.1,0c-0.1-0.1-0.2-0.1-0.4-0.2c0,0,0,0,0,0
		c-0.1-0.1-0.2-0.2-0.3-0.2c0,0,0,0,0.1,0.1c-0.1-0.1-0.2-0.2-0.2-0.3c0,0,0,0,0,0c-0.1-0.1-0.1-0.2-0.2-0.4c0,0,0,0.1,0,0.1
		C18.2,30.4,18.2,30.3,18.2,30.2C18.2,30.2,18.2,30.2,18.2,30.2c0,0.4,0.2,0.8,0.5,1.1c0.1,0.2,0.3,0.3,0.5,0.3
		c0.2,0.1,0.4,0.1,0.6,0.1c0.4,0,0.8-0.1,1.1-0.5c0.3-0.3,0.5-0.7,0.5-1.1c0-0.1,0-0.3-0.1-0.5c0-0.1-0.1-0.2-0.1-0.2
		c-0.1-0.2-0.2-0.4-0.4-0.6c-0.1-0.1-0.2-0.2-0.3-0.3c-0.1-0.1-0.3-0.1-0.4-0.2c-0.2-0.1-0.3-0.1-0.5-0.1c-0.2,0-0.4,0-0.5,0.1
		c-0.2,0.1-0.3,0.1-0.4,0.2c-0.1,0.1-0.3,0.2-0.3,0.3c-0.2,0.2-0.3,0.4-0.4,0.6c-0.1,0.2-0.1,0.4-0.2,0.7c0,0.5,0.2,1,0.5,1.3
		c0.2,0.2,0.4,0.3,0.6,0.4c0.1,0,0.2,0.1,0.2,0.1c0.1,0,0.2,0,0.2,0c0.1,0,0.1,0,0.2,0c0.1,0,0.3,0,0.5-0.1c0,0,0.1,0,0.1,0
		c0.3-0.1,0.5-0.2,0.8-0.4c0.4-0.4,0.5-0.8,0.5-1.3c0-0.2,0-0.4-0.1-0.6c-0.1-0.2-0.2-0.4-0.3-0.5c-0.1-0.2-0.3-0.3-0.5-0.3
		c-0.2-0.1-0.4-0.1-0.6-0.1c-0.4,0-0.8,0.1-1.1,0.5c-0.1,0.1-0.2,0.2-0.2,0.3C18.3,29.6,18.2,29.9,18.2,30.2"/>
</g>
</svg>
