<?xml version="1.0" encoding="utf-8"?>
<!-- Generator: Adobe Illustrator 19.0.0, SVG Export Plug-In . SVG Version: 6.00 Build 0)  -->
<svg version="1.1" id="图层_1" xmlns="http://www.w3.org/2000/svg" xmlns:xlink="http://www.w3.org/1999/xlink" x="0px" y="0px"
	 viewBox="0 0 32 40.1" style="enable-background:new 0 0 32 40.1;" xml:space="preserve">
<style type="text/css">
	.st0{fill-rule:evenodd;clip-rule:evenodd;fill:#666666;}
</style>
<g>
	<path class="st0" d="M16,40.1L16,40.1c-0.7,0-1.4-0.3-1.9-0.8c-0.4-0.4-3.8-4-7.2-8.6C2.3,24.5,0,19.5,0,16C0,7.2,7.2,0,16,0
		c8.8,0,16,7.2,16,16c0,2.1-0.8,4.8-2.5,7.8c-1.6,2.9-3.9,6.3-7,10.1l0,0l-4.6,5.3C17.4,39.8,16.7,40.1,16,40.1L16,40.1z M16,2.4
		C8.5,2.4,2.4,8.5,2.4,16c0,3,2.2,7.6,6.5,13.2c3.4,4.5,6.9,8.2,7,8.4c0,0,0.1,0,0.1,0h0c0,0,0,0,0.1,0l4.6-5.2
		c3-3.7,5.2-6.9,6.7-9.7c1.4-2.7,2.2-4.9,2.2-6.7C29.6,8.5,23.5,2.4,16,2.4L16,2.4z M16,23.5c-4.1,0-7.5-3.4-7.5-7.5
		c0-4.1,3.4-7.5,7.5-7.5s7.5,3.4,7.5,7.5S20.1,23.5,16,23.5L16,23.5z M16,10.9c-2.8,0-5.1,2.3-5.1,5.1c0,2.8,2.3,5.1,5.1,5.1
		c2.8,0,5.1-2.3,5.1-5.1C21.1,13.2,18.8,10.9,16,10.9L16,10.9z"/>
</g>
</svg>
