<?xml version="1.0" encoding="utf-8"?>
<!-- Generator: Adobe Illustrator 19.0.0, SVG Export Plug-In . SVG Version: 6.00 Build 0)  -->
<svg version="1.1" id="图层_1" xmlns="http://www.w3.org/2000/svg" xmlns:xlink="http://www.w3.org/1999/xlink" x="0px" y="0px"
	 viewBox="0 0 46 44.4" style="enable-background:new 0 0 46 44.4;" xml:space="preserve">
<style type="text/css">
	.st0{fill-rule:evenodd;clip-rule:evenodd;fill:#999999;}
</style>
<g>
	<path class="st0" d="M25,36.7c0,0.7,0.5,1.2,1.2,1.2h18.6c0.7,0,1.2-0.5,1.2-1.2c0-0.7-0.5-1.2-1.2-1.2H26.2
		C25.5,35.5,25,36,25,36.7L25,36.7L25,36.7z M44.8,42H17.3c-0.7,0-1.2,0.5-1.2,1.2c0,0.7,0.5,1.2,1.2,1.2h27.4
		c0.7,0,1.2-0.5,1.2-1.2C46,42.5,45.5,42,44.8,42L44.8,42L44.8,42z M18.3,37.6C18.3,37.6,18.3,37.5,18.3,37.6
		c0.1-0.1,0.1-0.1,0.1-0.1L38,18.2c0,0,0,0,0,0c0,0,0,0,0,0l3.7-3.6c1.5-1.5,2.4-3.5,2.4-5.6s-0.8-4.1-2.4-5.6l-1.1-1.1
		C39.1,0.8,37,0,34.8,0c-2.2,0-4.2,0.8-5.7,2.3L5.8,25.1c0,0-0.1,0.1-0.1,0.1c0,0,0,0,0,0c-0.1,0-0.1,0.1-0.1,0.2c0,0,0,0,0,0
		c0,0,0,0,0,0C2.7,28.8,0.3,40.8,0,42.3c-0.1,0.4,0.1,0.8,0.4,1.1c0.2,0.2,0.5,0.3,0.8,0.3c0.1,0,0.2,0,0.3,0
		c1.4-0.3,13.3-3.2,16.6-6C18.2,37.6,18.2,37.6,18.3,37.6L18.3,37.6L18.3,37.6z M8.3,26.1l18-17.6l9.1,8.9L17.4,35L8.3,26.1
		L8.3,26.1L8.3,26.1z M30.8,4c1.1-1,2.5-1.6,4-1.6c1.5,0,2.9,0.6,4,1.6l1.1,1.1C41,6.1,41.6,7.5,41.6,9c0,1.5-0.6,2.9-1.7,3.9
		l-2.8,2.7L28,6.8L30.8,4L30.8,4L30.8,4z M6.7,28l8.7,8.6c-2.7,1.4-8.3,3.2-12.7,4.3C3.8,36.4,5.3,30.7,6.7,28L6.7,28L6.7,28z"/>
</g>
</svg>
