<?xml version="1.0" encoding="utf-8"?>
<!-- Generator: Adobe Illustrator 19.0.0, SVG Export Plug-In . SVG Version: 6.00 Build 0)  -->
<svg version="1.1" id="图层_1" xmlns="http://www.w3.org/2000/svg" xmlns:xlink="http://www.w3.org/1999/xlink" x="0px" y="0px"
	 viewBox="0 0 68 68" style="enable-background:new 0 0 68 68;" xml:space="preserve">
<style type="text/css">
	.st0{fill-rule:evenodd;clip-rule:evenodd;fill:#FAE945;}
	.st1{fill-rule:evenodd;clip-rule:evenodd;fill:#FAB01B;}
	.st2{fill-rule:evenodd;clip-rule:evenodd;fill:#FCC62E;}
</style>
<g>
	<path class="st0" d="M34,34L34,34z M0,34c0,18.8,15.2,34,34,34s34-15.2,34-34S52.8,0,34,0S0,15.2,0,34"/>
	<path class="st1" d="M34,34L34,34z M7.9,34c0,14.4,11.7,26.1,26.1,26.1S60.1,48.4,60.1,34S48.4,7.9,34,7.9S7.9,19.6,7.9,34"/>
	<path class="st2" d="M60.1,34c0-5.6-1.9-11.2-5.1-15.4c-4.2-3.3-9.8-5.1-15.4-5.1c-14.4,0-26.1,11.6-26.1,26.1
		c0,5.6,1.9,11.2,5.1,15.4c4.2,3.3,9.8,5.1,15.4,5.1C48.4,60.1,60.1,48.4,60.1,34L60.1,34z"/>
	<polygon class="st1" points="36.8,19.1 42.4,30.3 54.5,32.6 46.1,41.9 47.5,54.5 36.8,48.9 25.6,54.5 27.5,41.9 19.1,32.6 
		30.7,30.3 36.8,19.1 	"/>
	<polygon class="st0" points="34,16.3 40.1,27.5 51.7,29.8 43.3,39.1 44.7,51.7 34,46.1 23.3,51.7 24.7,39.1 16.3,29.8 27.9,27.5 
		34,16.3 	"/>
</g>
</svg>
