<?xml version="1.0" encoding="utf-8"?>
<!-- Generator: Adobe Illustrator 19.0.0, SVG Export Plug-In . SVG Version: 6.00 Build 0)  -->
<svg version="1.1" id="图层_1" xmlns="http://www.w3.org/2000/svg" xmlns:xlink="http://www.w3.org/1999/xlink" x="0px" y="0px"
	 viewBox="0 0 40 45.8" style="enable-background:new 0 0 40 45.8;" xml:space="preserve">
<style type="text/css">
	.st0{clip-path:url(#SVGID_2_);fill:#F97319;}
</style>
<g>
	<defs>
		<rect id="SVGID_1_" width="40" height="45.8"/>
	</defs>
	<clipPath id="SVGID_2_">
		<use xlink:href="#SVGID_1_"  style="overflow:visible;"/>
	</clipPath>
	<path class="st0" d="M14.3,15.2h-3.9V26l0.8-1.8V16h3.3v9.2l-0.9,2H15l0.2,0.4V16.1c0-0.3-0.1-0.5-0.3-0.7
		C14.8,15.3,14.6,15.2,14.3,15.2"/>
	<path class="st0" d="M40,12c-0.1-1-1.1-1.3-1.9-1.8c-3.2-1.9-6.4-3.7-9.6-5.6c-2.6-1.5-5.3-3-7.9-4.6C20.4,0.1,20.2,0,20,0
		c0,0,0,0,0,0c0,0,0,0,0,0c-0.2,0-0.4,0-0.6,0.2C13.8,3.4,8.3,6.6,2.7,9.8C2,10.2,1.2,10.5,0.6,11C-0.2,11.6,0,12.6,0,13.5v11.1v9.1
		c0,0.4,0.2,0.8,0.6,1c5.5,3.2,11,6.3,16.5,9.5c0.8,0.4,1.6,0.9,2.3,1.3c0.4,0.2,0.8,0.2,1.2,0c5.5-3.2,11-6.3,16.5-9.5
		c0.8-0.4,1.6-0.9,2.3-1.3c0.4-0.2,0.6-0.6,0.6-1V14.5C40,13.7,40.1,12.8,40,12 M18.2,28.4h-2.5l2.5,4.4h-3.8l-1.8-3.4L11,32.9H7.4
		l2-4.4H7.7V12.4h7.3c0.4,0,0.8,0.1,1.2,0.3c0.4,0.2,0.7,0.4,1,0.7c0.3,0.3,0.5,0.6,0.7,1c0.2,0.4,0.2,0.8,0.2,1.2V28.4z M32.6,14.3
		v15.4c0,0.4-0.1,0.8-0.2,1.2c-0.2,0.4-0.4,0.7-0.7,1c-0.3,0.3-0.6,0.5-1,0.7c-0.4,0.2-0.8,0.2-1.2,0.2h-4.2l1.1-2.5h1.4
		c0.2,0,0.5-0.1,0.6-0.3c0.2-0.2,0.3-0.4,0.3-0.6v-0.2h-3.3l-0.1-0.5h-7L21,18.2h4L23,26.1h1.7l-0.7-3.5h3.3l1.2,6.5V17h-5.8H22h-3
		l1.8-4.6h3.8l-0.7,1.8h8.7V14.3z"/>
</g>
</svg>
