<?xml version="1.0" encoding="utf-8"?>
<!-- Generator: Adobe Illustrator 19.0.0, SVG Export Plug-In . SVG Version: 6.00 Build 0)  -->
<svg version="1.1" id="图层_1" xmlns="http://www.w3.org/2000/svg" xmlns:xlink="http://www.w3.org/1999/xlink" x="0px" y="0px"
	 viewBox="0 0 36 33.8" style="enable-background:new 0 0 36 33.8;" xml:space="preserve">
<style type="text/css">
	.st0{clip-path:url(#SVGID_2_);fill:#666666;}
</style>
<g>
	<defs>
		<rect id="SVGID_1_" width="36" height="33.8"/>
	</defs>
	<clipPath id="SVGID_2_">
		<use xlink:href="#SVGID_1_"  style="overflow:visible;"/>
	</clipPath>
	<path class="st0" d="M26.4,14c-1.3-2.3-2.5-4.5-3.8-6.8c-0.9-1.5-1.7-3.1-2.6-4.6c-0.3-0.5-0.6-1-0.9-1.5c-0.1-0.1-0.1-0.3-0.2-0.4
		c-0.2-0.3,0-0.3,0,0.3c0-0.9-1.3-1.3-1.8-0.5c0,0,0,0,0,0h1.7c0,0,0,0,0,0C18.4-0.4,17,0,17,1c0-0.6,0.2-0.6,0-0.3
		c-0.1,0.1-0.2,0.3-0.2,0.4c-0.3,0.5-0.6,1-0.9,1.5c-0.9,1.5-1.7,3.1-2.6,4.6c-1.3,2.3-2.5,4.5-3.8,6.8c0.5-0.1,1-0.1,1.5-0.2
		L5.4,9.3C4.3,8.5,3.2,7.8,1.8,8.4C0.6,8.9-0.1,10.1,0,11.4C0.3,16.6,1,21.8,1.4,27c0.2,1.9,0.4,3.9,0.5,5.8c0,0.5,0.4,1,1,1h23.9
		h6.3c0.6,0,0.9-0.4,1-1c0.4-4.7,0.9-9.4,1.3-14.1c0.2-2.3,0.4-4.7,0.6-7c0.1-0.9,0-1.7-0.6-2.5c-1.1-1.4-3-1.4-4.3-0.3
		c-2.1,1.6-4.1,3.2-6.2,4.9c-1,0.8,0.4,2.1,1.4,1.4c1.8-1.4,3.6-2.8,5.4-4.2c0.6-0.5,1.8-1.5,2.3-0.2c0.2,0.4,0,1,0,1.4
		c-0.5,5.2-1,10.4-1.4,15.6c-0.2,1.7-0.3,3.4-0.5,5.1l1-1H9.2H2.9l1,1C3.5,28.5,3.1,24.2,2.7,20c-0.2-2.4-0.4-4.9-0.7-7.3
		c0-0.5-0.1-1-0.1-1.4c0-1.2,1.2-1.2,1.9-0.6c2,1.5,3.9,3.1,5.9,4.6c0.5,0.4,1.2,0.4,1.5-0.2c1.3-2.3,2.6-4.7,3.9-7
		c0.9-1.5,1.7-3.1,2.6-4.6C18.1,2.7,19,1.7,19,1c-0.6,0.2-1.2,0.3-1.8,0.5c0,0,0,0,0,0c0.4,0.6,1.3,0.6,1.7,0c0,0,0,0,0,0
		C18.2,1.3,17.6,1.1,17,1c0,0.8,0.8,1.8,1.2,2.4C19.1,4.9,20,6.4,20.8,8c1.3,2.3,2.6,4.7,3.9,7C25.4,16.1,27,15.1,26.4,14"/>
	<path class="st0" d="M2.3,25.7h27.6h3.9c1.2,0,1.2-1.9,0-1.9H6.2H2.3C1,23.8,1,25.7,2.3,25.7"/>
	<path class="st0" d="M12.1,28.7C12.1,28.7,12.1,28.7,12.1,28.7c0-0.1,0-0.1,0-0.2c0,0,0,0,0,0c0-0.1,0.1-0.2,0.1-0.2c0,0,0,0,0,0
		c0.1-0.1,0.1-0.1,0.2-0.2c0,0,0,0,0,0c0.1-0.1,0.1-0.1,0.2-0.2c0,0,0,0,0,0c0.1,0,0.2-0.1,0.2-0.1l0,0h0.5l0,0
		c0.1,0,0.2,0.1,0.2,0.1c0,0,0,0,0,0c0.1,0.1,0.1,0.1,0.2,0.2c0,0,0,0,0,0c0.1,0.1,0.1,0.1,0.2,0.2c0,0,0,0,0,0
		c0,0.1,0.1,0.2,0.1,0.2l0,0c0,0.1,0,0.2,0,0.3c0,0,0,0,0-0.1c0,0.1,0,0.2,0,0.3l0,0c0,0.1-0.1,0.2-0.1,0.2c0,0,0,0,0,0
		c-0.1,0.1-0.1,0.1-0.2,0.2c0,0,0,0,0,0c-0.1,0.1-0.1,0.1-0.2,0.2c0,0,0,0,0,0c-0.1,0-0.2,0.1-0.2,0.1c0,0,0,0,0,0h-0.5c0,0,0,0,0,0
		c-0.1,0-0.2-0.1-0.2-0.1c0,0,0,0,0,0c-0.1-0.1-0.1-0.1-0.2-0.2c0,0,0,0,0,0c-0.1-0.1-0.1-0.1-0.2-0.2c0,0,0,0,0,0
		c0-0.1-0.1-0.2-0.1-0.2c0,0,0,0,0,0C12.1,28.9,12.1,28.8,12.1,28.7C12.1,28.7,12.1,28.7,12.1,28.7c0,0.1,0,0.3,0.1,0.4
		c0,0.1,0.1,0.2,0.2,0.3c0.2,0.2,0.4,0.3,0.7,0.3c0.3,0,0.5-0.1,0.7-0.3c0.2-0.2,0.3-0.4,0.3-0.7c0-0.1,0-0.2,0-0.3
		c0-0.2-0.1-0.3-0.3-0.4c-0.2-0.2-0.5-0.3-0.7-0.3c-0.3,0-0.5,0.1-0.7,0.3c-0.2,0.2-0.3,0.5-0.3,0.8c0,0.3,0.1,0.6,0.3,0.8
		c0.2,0.2,0.5,0.3,0.7,0.3c0.3,0,0.5-0.1,0.7-0.3c0.1-0.1,0.2-0.2,0.2-0.3C14,29,14,28.9,14,28.7c0-0.2-0.1-0.5-0.3-0.7
		c-0.2-0.2-0.4-0.3-0.7-0.3c-0.3,0-0.5,0.1-0.7,0.3l-0.2,0.2C12.1,28.4,12.1,28.5,12.1,28.7"/>
	<path class="st0" d="M17.2,28.7C17.2,28.7,17.2,28.7,17.2,28.7c0-0.1,0-0.1,0-0.2c0,0,0,0,0,0c0-0.1,0.1-0.2,0.1-0.2c0,0,0,0,0,0
		c0.1-0.1,0.1-0.1,0.2-0.2c0,0,0,0,0,0c0.1-0.1,0.1-0.1,0.2-0.2c0,0,0,0,0,0c0.1,0,0.2-0.1,0.2-0.1l0,0h0.5c0,0,0,0,0,0
		c0.1,0,0.2,0.1,0.2,0.1c0,0,0,0,0,0c0.1,0.1,0.1,0.1,0.2,0.2c0,0,0,0,0,0l0.2,0.2c0,0,0,0,0,0c0,0.1,0.1,0.2,0.1,0.2c0,0,0,0,0,0
		c0,0.1,0,0.2,0,0.3c0,0,0,0,0-0.1c0,0.1,0,0.2,0,0.3c0,0,0,0,0,0c0,0.1-0.1,0.2-0.1,0.2c0,0,0,0,0,0c-0.1,0.1-0.1,0.1-0.2,0.2
		c0,0,0,0,0,0c-0.1,0.1-0.1,0.1-0.2,0.2c0,0,0,0,0,0c-0.1,0-0.2,0.1-0.2,0.1c0,0,0,0,0,0h-0.5c0,0,0,0,0,0c-0.1,0-0.2-0.1-0.2-0.1
		c0,0,0,0,0,0c-0.1-0.1-0.1-0.1-0.2-0.2c0,0,0,0,0,0c-0.1-0.1-0.1-0.1-0.2-0.2c0,0,0,0,0,0c0-0.1-0.1-0.2-0.1-0.2c0,0,0,0,0,0
		C17.3,28.9,17.2,28.8,17.2,28.7C17.2,28.7,17.2,28.7,17.2,28.7c0,0.1,0,0.3,0.1,0.4c0,0.1,0.1,0.2,0.2,0.3c0.2,0.2,0.4,0.3,0.7,0.3
		c0.3,0,0.5-0.1,0.7-0.3c0.2-0.2,0.3-0.4,0.3-0.7c0-0.1,0-0.2,0-0.3c0-0.2-0.1-0.3-0.3-0.4c-0.2-0.2-0.5-0.3-0.7-0.3
		c-0.3,0-0.5,0.1-0.7,0.3c-0.2,0.2-0.3,0.5-0.3,0.8c0,0.3,0.1,0.6,0.3,0.8c0.2,0.2,0.5,0.3,0.7,0.3c0.3,0,0.5-0.1,0.7-0.3
		c0.1-0.1,0.2-0.2,0.2-0.3c0.1-0.2,0.1-0.2,0.1-0.4c0-0.2-0.1-0.5-0.3-0.7c-0.2-0.2-0.4-0.3-0.7-0.3c-0.3,0-0.5,0.1-0.7,0.3
		c-0.1,0.1-0.1,0.1-0.2,0.2C17.3,28.4,17.2,28.5,17.2,28.7"/>
	<path class="st0" d="M22.4,28.7C22.4,28.7,22.4,28.7,22.4,28.7c0-0.1,0-0.1,0-0.2l0,0c0-0.1,0.1-0.2,0.1-0.2c0,0,0,0,0,0
		c0.1-0.1,0.1-0.1,0.2-0.2c0,0,0,0,0,0c0.1-0.1,0.1-0.1,0.2-0.2c0,0,0,0,0,0c0.1,0,0.2-0.1,0.2-0.1l0,0h0.5l0,0
		c0.1,0,0.2,0.1,0.2,0.1l0,0c0.1,0.1,0.1,0.1,0.2,0.2c0,0,0,0,0,0c0.1,0.1,0.1,0.1,0.2,0.2c0,0,0,0,0,0c0,0.1,0.1,0.2,0.1,0.2
		c0,0,0,0,0,0c0,0.1,0,0.2,0,0.3c0,0,0,0,0-0.1c0,0.1,0,0.2,0,0.3c0,0,0,0,0,0c0,0.1-0.1,0.2-0.1,0.2c0,0,0,0,0,0
		c-0.1,0.1-0.1,0.1-0.2,0.2c0,0,0,0,0,0c-0.1,0.1-0.1,0.1-0.2,0.2c0,0,0,0,0,0c-0.1,0-0.2,0.1-0.2,0.1c0,0,0,0,0,0H23c0,0,0,0,0,0
		c-0.1,0-0.2-0.1-0.2-0.1c0,0,0,0,0,0c-0.1-0.1-0.1-0.1-0.2-0.2c0,0,0,0,0,0c-0.1-0.1-0.1-0.1-0.2-0.2c0,0,0,0,0,0
		c0-0.1-0.1-0.2-0.1-0.2l0,0C22.4,28.9,22.4,28.8,22.4,28.7C22.4,28.7,22.4,28.7,22.4,28.7c0,0.1,0,0.3,0.1,0.4
		c0,0.1,0.1,0.2,0.2,0.3c0.2,0.2,0.4,0.3,0.7,0.3c0.3,0,0.5-0.1,0.7-0.3c0.2-0.2,0.3-0.4,0.3-0.7c0-0.1,0-0.2,0-0.3
		c0-0.2-0.1-0.3-0.3-0.4c-0.2-0.2-0.5-0.3-0.7-0.3c-0.3,0-0.5,0.1-0.7,0.3c-0.2,0.2-0.3,0.5-0.3,0.8c0,0.3,0.1,0.6,0.3,0.8
		c0.2,0.2,0.5,0.3,0.7,0.3c0.3,0,0.5-0.1,0.7-0.3c0.1-0.1,0.2-0.2,0.2-0.3c0.1-0.2,0.1-0.2,0.1-0.4c0-0.2-0.1-0.5-0.3-0.7
		c-0.2-0.2-0.4-0.3-0.7-0.3c-0.3,0-0.5,0.1-0.7,0.3c-0.1,0.1-0.1,0.1-0.2,0.2C22.4,28.4,22.4,28.5,22.4,28.7"/>
</g>
</svg>
