<?xml version="1.0" encoding="utf-8"?>
<!-- Generator: Adobe Illustrator 19.0.0, SVG Export Plug-In . SVG Version: 6.00 Build 0)  -->
<svg version="1.1" id="图层_1" xmlns="http://www.w3.org/2000/svg" xmlns:xlink="http://www.w3.org/1999/xlink" x="0px" y="0px"
	 viewBox="0 0 22 23.4" style="enable-background:new 0 0 22 23.4;" xml:space="preserve">
<style type="text/css">
	.st0{fill-rule:evenodd;clip-rule:evenodd;fill:#999999;}
</style>
<g>
	<path class="st0" d="M20.6,4.2l-1.7,1.7c-0.2,0.2-0.6,0.2-0.8,0c-0.2-0.2-0.2-0.6,0-0.8l1.7-1.7c0.2-0.2,0.4-0.2,0.6-0.2
		c0.2,0.1,0.4,0.2,0.4,0.4C20.8,3.8,20.7,4,20.6,4.2L20.6,4.2z M11,3.5L11,3.5c-0.3,0-0.6-0.3-0.6-0.6V0.6c0-0.3,0.3-0.6,0.6-0.6h0
		c0.3,0,0.6,0.3,0.6,0.6v2.3C11.5,3.2,11.3,3.5,11,3.5L11,3.5z M3.3,6L1.7,4.4C1.5,4.2,1.5,4,1.5,3.8c0.1-0.2,0.2-0.4,0.4-0.4
		c0.2-0.1,0.4,0,0.6,0.1l1.6,1.6c0.2,0.2,0.2,0.6,0,0.8C3.9,6.2,3.5,6.2,3.3,6L3.3,6z M19.9,21.5H2.6c-0.2,0-0.3-0.1-0.4-0.2
		C2.1,21.3,2,21.1,2,21v-7c0-5,4.1-9.1,9.1-9.1h0.3c5,0,9.1,4.1,9.1,9.1v7c0,0.2-0.1,0.3-0.2,0.4C20.1,21.5,20,21.5,19.9,21.5
		L19.9,21.5z M3.2,20.4h16.1V14c0-4.4-3.6-7.9-7.9-7.9h-0.3C6.7,6,3.2,9.6,3.2,14V20.4L3.2,20.4z M0.6,22.2h20.9
		c0.3,0,0.6,0.3,0.6,0.6v0c0,0.2-0.1,0.3-0.2,0.4c-0.1,0.1-0.3,0.2-0.4,0.2H0.6c-0.2,0-0.3-0.1-0.4-0.2C0.1,23.1,0,23,0,22.8v0
		c0-0.2,0.1-0.3,0.2-0.4C0.3,22.3,0.4,22.2,0.6,22.2L0.6,22.2z"/>
</g>
</svg>
