<?xml version="1.0" encoding="utf-8"?>
<!-- Generator: Adobe Illustrator 19.0.0, SVG Export Plug-In . SVG Version: 6.00 Build 0)  -->
<svg version="1.1" id="图层_2" xmlns="http://www.w3.org/2000/svg" xmlns:xlink="http://www.w3.org/1999/xlink" x="0px" y="0px"
	 viewBox="0 0 77 70" style="enable-background:new 0 0 77 70;" xml:space="preserve">
<style type="text/css">
	.st0{fill:url(#SVGID_1_);}
	.st1{fill:#FFFFFF;}
</style>
<g>
	<g>
		<linearGradient id="SVGID_1_" gradientUnits="userSpaceOnUse" x1="38.5" y1="-1.006811e-009" x2="38.5" y2="70">
			<stop  offset="0" style="stop-color:#F093FB"/>
			<stop  offset="1" style="stop-color:#F5576C"/>
		</linearGradient>
		<path class="st0" d="M61.5,0.3C61.4,0.1,61.2,0,60.9,0H38.5H16.1c-0.2,0-0.5,0.1-0.6,0.3L0.1,27.2C-0.1,27.4,0,27.8,0.2,28
			L38,69.8c0.3,0.3,0.7,0.3,1,0L76.8,28c0.2-0.2,0.2-0.5,0.1-0.8L61.5,0.3z"/>
	</g>
	<g>
		<g>
			<path class="st1" d="M67.5,29.4c0-1.1,0-2.2,0-3.4c0-2.7-2.3-5-5-5c-3.2,0-7.1-0.7-9.7,1.5c-1.9,1.6-3.4,4.1-5,6
				c-4.3,5.2-8.6,10.3-12.9,15.5c2.4,0,4.7,0,7.1,0c-4.3-5.2-8.6-10.3-12.9-15.5c-1.6-1.9-3.1-4.4-5-6c-2.6-2.2-6.5-1.5-9.7-1.5
				c-2.7,0-5,2.3-5,5c0,1.1,0,2.2,0,3.4c0,6.4,10,6.4,10,0c0-1.1,0-2.2,0-3.4c-1.7,1.7-3.3,3.3-5,5c2,0,4.1,0,6.1,0
				c-1.2-0.5-2.4-1-3.5-1.5C23,36.8,29,44,35,51.2c1.6,1.9,5.5,1.9,7.1,0C48,44,54,36.8,59.9,29.6c-1.2,0.5-2.4,1-3.5,1.5
				c2,0,4.1,0,6.1,0c-1.7-1.7-3.3-3.3-5-5c0,1.1,0,2.2,0,3.4C57.5,35.9,67.5,35.9,67.5,29.4L67.5,29.4z"/>
		</g>
	</g>
</g>
</svg>
