<?xml version="1.0" encoding="utf-8"?>
<!-- Generator: Adobe Illustrator 19.0.0, SVG Export Plug-In . SVG Version: 6.00 Build 0)  -->
<svg version="1.1" id="图层_1" xmlns="http://www.w3.org/2000/svg" xmlns:xlink="http://www.w3.org/1999/xlink" x="0px" y="0px"
	 viewBox="0 0 44 50" style="enable-background:new 0 0 44 50;" xml:space="preserve">
<style type="text/css">
	.st0{fill-rule:evenodd;clip-rule:evenodd;fill:#FFFFFF;}
</style>
<g>
	<path class="st0" d="M23,0c0.5,0,0.9,0.1,1.4,0.1C27.4,0.5,30.3,1.4,33,3c5.2,3.1,8.7,7.6,10.3,13.7c0.5,1.8,0.7,3.6,0.7,5.5v5.6
		c0,0.9-0.2,1.8-0.6,2.6c-0.1,0.4-0.2,0.6-0.4,1c-2.2,7.9-8.8,13.8-16.7,15.4c-0.5,0.1-1.1,0.3-1.6,0.3c-0.2,0-0.2,0.1-0.2,0.3
		c-0.6,1.8-2.2,2.8-4.1,2.6c-1.7-0.1-3.3-1.4-3.7-3.1c-0.5-2.1,0.6-4.3,2.6-5c2-0.8,4.2,0.1,5.2,2.1c0.1,0.3,0.2,0.3,0.4,0.3
		c6.7-1.1,11.5-4.8,14.6-10.8c0,0,0-0.1,0.1-0.3h-0.6c-3.2,0.1-5.8-2.4-5.8-5.5v-5.5c0-3.3,2.6-5.8,5.8-5.5c0.5,0,1,0.3,1.6,0.4h0.1
		c-1.9-6.9-8.5-14-18.2-14.3C12.6,2.5,5.4,9.6,3.5,17c0.4-0.1,0.7-0.3,1.1-0.3c2.8-0.5,5.8,1.5,6.3,4.5c0,0.4,0.1,0.8,0.1,1.1v5.4
		c0,2.6-1.9,4.9-4.3,5.5c-3,0.6-6.1-1.4-6.6-4.5c0-0.3-0.1-0.6-0.1-1v-5.9C0.2,14.9,3.1,9,8.7,4.6c2.8-2.3,6.1-3.6,9.5-4.3
		c0.9-0.1,1.7-0.3,2.6-0.3H21C21.6,0,22.4,0,23,0L23,0z M8.3,25.1v-2.8c0-1.6-1.2-2.9-2.7-2.9s-2.7,1.3-2.7,2.9v5.5
		c0,0.3,0,0.4,0.1,0.6c0.4,1.4,1.6,2.4,3,2.1c1.5-0.1,2.5-1.4,2.5-2.8C8.3,26.9,8.3,26.1,8.3,25.1L8.3,25.1z M35.7,25.1v2.8
		c0,0.3,0,0.5,0.1,0.6c0.4,1.4,1.6,2.4,3,2.1c1.5-0.1,2.5-1.4,2.5-2.8v-5.5c0-0.3,0-0.4-0.1-0.6c-0.4-1.4-1.6-2.3-3-2.1
		c-1.5,0.1-2.5,1.4-2.5,2.8V25.1L35.7,25.1z"/>
</g>
</svg>
