<?xml version="1.0" encoding="utf-8"?>
<!-- Generator: Adobe Illustrator 19.0.0, SVG Export Plug-In . SVG Version: 6.00 Build 0)  -->
<svg version="1.1" id="图层_1" xmlns="http://www.w3.org/2000/svg" xmlns:xlink="http://www.w3.org/1999/xlink" x="0px" y="0px"
	 viewBox="0 0 38 34.6" style="enable-background:new 0 0 38 34.6;" xml:space="preserve">
<style type="text/css">
	.st0{clip-path:url(#SVGID_2_);fill:#666666;}
</style>
<g>
	<defs>
		<rect id="SVGID_1_" width="38" height="34.6"/>
	</defs>
	<clipPath id="SVGID_2_">
		<use xlink:href="#SVGID_1_"  style="overflow:visible;"/>
	</clipPath>
	<path class="st0" d="M5.2,26.4c-2-2.1-3.4-4.7-3.3-7.7c0.1-2.1,0.9-4.2,2.3-5.9c3.2-4,8.5-5.8,13.4-5.9c5-0.1,10.3,1.6,13.7,5.5
		c2.9,3.4,3.4,8.1,1,11.9c-3,4.7-9,6.9-14.4,6.9c-1.3,0-1.3,2,0,2c5.6,0,11.5-2,15.1-6.5c3.3-4,3.8-9.5,0.9-13.9
		C27.7,3,11.2,2.5,3.5,10.7c-1.9,2-3.2,4.6-3.5,7.4c-0.3,3.6,1.3,7.1,3.8,9.7C4.7,28.6,6.1,27.3,5.2,26.4"/>
	<path class="st0" d="M4.7,6.4c5.1-4.2,12.7-5.1,19-3.9c4.9,0.9,11,3.5,12.4,8.9c0.3,1.2,2.2,0.7,1.9-0.5c-1.1-4.4-5.2-7.3-9.2-8.9
		C23.3-0.3,17-0.5,11.4,1c-2.9,0.8-5.7,2.1-8,4C2.4,5.8,3.8,7.2,4.7,6.4"/>
	<path class="st0" d="M18,31.1L2.9,32.6c0.3,0.4,0.6,0.8,0.9,1.2c0.6-2.1,1.1-4.2,1.7-6.3C5.9,26.3,4,25.8,3.6,27
		c-0.6,2.1-1.1,4.2-1.7,6.3c-0.1,0.6,0.3,1.3,0.9,1.2L18,33.1C19.2,33,19.2,31,18,31.1"/>
	<path class="st0" d="M10.9,19.3C10.9,19.2,10.9,19.2,10.9,19.3c0,0,0.1-0.2,0-0.1c-0.1,0.1,0,0,0.1,0c0.1,0,0.1,0,0,0
		c0,0,0.1,0,0.1,0c0.1,0,0.1,0,0,0c0,0,0.2,0.1,0.1,0.1c-0.1-0.1,0,0,0,0.1c0,0.1,0-0.2,0,0c0,0.1,0,0.1,0,0c0,0.1-0.1,0.1-0.1,0.1
		c0.1-0.1,0,0,0,0c-0.1,0,0.1,0,0,0c-0.1,0-0.2,0,0,0C11,19.4,11,19.4,10.9,19.3C11,19.4,10.9,19.4,10.9,19.3
		C10.9,19.2,10.9,19.5,10.9,19.3c0,0.5,0.4,1,1,1c0.5,0,1-0.4,1-1c-0.1-1-0.8-1.8-1.8-1.8c-1,0-1.8,0.8-1.8,1.8c0,1,0.8,1.8,1.7,1.8
		c1,0,1.8-0.8,1.8-1.8c0-0.5-0.5-1-1-1C11.3,18.3,10.9,18.7,10.9,19.3"/>
	<path class="st0" d="M17.8,19.3C17.8,19.2,17.8,19.2,17.8,19.3c0,0,0.1-0.2,0-0.1c-0.1,0.1,0,0,0.1,0c0.1,0,0.1,0,0,0
		c0,0,0.1,0,0.1,0c0.1,0,0.1,0,0,0c0,0,0.2,0.1,0.1,0.1c-0.1-0.1,0,0,0,0.1c0,0.1,0-0.2,0,0c0,0.1,0,0.1,0,0c0,0.1-0.1,0.1-0.1,0.1
		c0.1-0.1,0,0,0,0c-0.1,0,0.1,0,0,0c-0.1,0-0.2,0,0,0C17.9,19.4,17.8,19.4,17.8,19.3C17.9,19.4,17.8,19.4,17.8,19.3
		C17.7,19.2,17.8,19.5,17.8,19.3c0,0.5,0.4,1,1,1c0.5,0,1-0.4,1-1c-0.1-1-0.8-1.8-1.8-1.8c-1,0-1.8,0.8-1.8,1.8c0,1,0.8,1.8,1.7,1.8
		c1,0,1.8-0.8,1.8-1.8c0-0.5-0.5-1-1-1C18.2,18.3,17.8,18.7,17.8,19.3"/>
	<path class="st0" d="M24.7,19.3C24.7,19.2,24.7,19.2,24.7,19.3c0,0,0.1-0.2,0-0.1c-0.1,0.1,0,0,0.1,0c0.1,0,0.1,0,0,0
		c0,0,0.1,0,0.1,0c0.1,0,0.1,0,0,0c0,0,0.2,0.1,0.1,0.1c-0.1-0.1,0,0,0,0.1c0,0.1,0-0.2,0,0c0,0.1,0,0.1,0,0c0,0.1-0.1,0.1-0.1,0.1
		c0.1-0.1,0,0,0,0c-0.1,0,0.1,0,0,0c-0.1,0-0.2,0,0,0C24.8,19.4,24.7,19.4,24.7,19.3C24.8,19.4,24.7,19.4,24.7,19.3
		C24.6,19.2,24.7,19.5,24.7,19.3c0,0.5,0.4,1,1,1c0.5,0,1-0.4,1-1c-0.1-1-0.8-1.8-1.8-1.8c-1,0-1.8,0.8-1.8,1.8c0,1,0.8,1.8,1.7,1.8
		c1,0,1.8-0.8,1.8-1.8c0-0.5-0.5-1-1-1C25.1,18.3,24.7,18.7,24.7,19.3"/>
</g>
</svg>
