<?xml version="1.0" encoding="utf-8"?>
<!-- Generator: Adobe Illustrator 19.0.0, SVG Export Plug-In . SVG Version: 6.00 Build 0)  -->
<svg version="1.1" id="图层_1" xmlns="http://www.w3.org/2000/svg" xmlns:xlink="http://www.w3.org/1999/xlink" x="0px" y="0px"
	 viewBox="0 0 35 32.8" style="enable-background:new 0 0 35 32.8;" xml:space="preserve">
<style type="text/css">
	.st0{fill-rule:evenodd;clip-rule:evenodd;fill:#999999;}
</style>
<g>
	<path class="st0" d="M17.5,32.8c-0.4,0-0.8-0.2-1.1-0.5l0,0c0,0-3.8-3.9-5.3-5.5H5.3c-2.9,0-5.3-2.6-5.3-5.6V5.3C0,2.4,2.3,0,5.2,0
		h24.6C32.7,0,35,2.4,35,5.3v15.9c0,3-2.4,5.6-5.3,5.6h-5.9c-2.1,2.1-5,5.4-5.1,5.4C18.3,32.6,17.9,32.8,17.5,32.8L17.5,32.8z
		 M5.2,2.2c-1.7,0-3,1.4-3,3.1v15.9c0,1.8,1.5,3.4,3.1,3.4H12l0.3,0.3c0.9,0.9,4,4.1,5.1,5.3c0.9-1.1,3.4-3.7,5.1-5.4l0.3-0.3h6.8
		c1.7,0,3.1-1.6,3.1-3.4V5.3c0-1.7-1.3-3.1-3-3.1H5.2L5.2,2.2z"/>
	<path class="st0" d="M9.3,11.7c-1.1,0-2,0.9-2,2.1s0.9,2.1,2,2.1s2-0.9,2-2.1S10.4,11.7,9.3,11.7L9.3,11.7L9.3,11.7z"/>
	<path class="st0" d="M17.5,11.7c-1.1,0-2,0.9-2,2.1s0.9,2.1,2,2.1c1.1,0,2-0.9,2-2.1S18.6,11.7,17.5,11.7L17.5,11.7L17.5,11.7z"/>
	<path class="st0" d="M25.7,11.7c-1.1,0-2.1,0.9-2.1,2.1s0.9,2.1,2.1,2.1s2-0.9,2-2.1C27.8,12.7,26.8,11.7,25.7,11.7L25.7,11.7
		L25.7,11.7z"/>
</g>
</svg>
