<?xml version="1.0" encoding="utf-8"?>
<!-- Generator: Adobe Illustrator 19.0.0, SVG Export Plug-In . SVG Version: 6.00 Build 0)  -->
<svg version="1.1" id="图层_1" xmlns="http://www.w3.org/2000/svg" xmlns:xlink="http://www.w3.org/1999/xlink" x="0px" y="0px"
	 viewBox="0 0 23 21.5" style="enable-background:new 0 0 23 21.5;" xml:space="preserve">
<style type="text/css">
	.st0{fill-rule:evenodd;clip-rule:evenodd;fill:#999999;}
</style>
<g>
	<path class="st0" d="M5.7,7.5C5,7.5,4.3,8.1,4.3,8.9c0,0.8,0.6,1.5,1.4,1.5c0.8,0,1.4-0.7,1.4-1.5C7.2,8.1,6.5,7.5,5.7,7.5L5.7,7.5
		z M11.5,7.5c-0.8,0-1.4,0.7-1.4,1.5c0,0.8,0.6,1.5,1.4,1.5c0.8,0,1.4-0.7,1.4-1.5C12.9,8.1,12.3,7.5,11.5,7.5L11.5,7.5z M17.2,7.5
		c-0.8,0-1.4,0.7-1.4,1.5c0,0.8,0.6,1.5,1.4,1.5c0.8,0,1.4-0.7,1.4-1.5C18.7,8.1,18,7.5,17.2,7.5L17.2,7.5z M20.1,0H2.9
		C1.3,0,0,1.3,0,3v11.2c0,1.6,1.3,3.2,2.9,3.2h4.4c0.8,0.8,3.9,4.1,3.9,4.1c0.1,0.1,0.4,0.1,0.5,0c0,0,2.3-2.6,3.8-4.1h4.5
		c1.6,0,2.9-1.5,2.9-3.2V3C23,1.3,21.7,0,20.1,0L20.1,0z M21.6,14.2c0,0.8-0.7,1.7-1.5,1.7h-4.4c-0.5,0-1,0.5-1,0.5l-3.1,3.2
		l-3.1-3.2c0,0-0.6-0.5-1.1-0.5H2.9c-0.8,0-1.5-0.9-1.5-1.7V3c0-0.8,0.6-1.5,1.4-1.5h17.2c0.8,0,1.4,0.7,1.4,1.5V14.2L21.6,14.2z"/>
</g>
</svg>
