<?xml version="1.0" encoding="utf-8"?>
<!-- Generator: Adobe Illustrator 19.0.0, SVG Export Plug-In . SVG Version: 6.00 Build 0)  -->
<svg version="1.1" id="图层_1" xmlns="http://www.w3.org/2000/svg" xmlns:xlink="http://www.w3.org/1999/xlink" x="0px" y="0px"
	 viewBox="0 0 30 29.6" style="enable-background:new 0 0 30 29.6;" xml:space="preserve">
<style type="text/css">
	.st0{fill-rule:evenodd;clip-rule:evenodd;fill:#999999;}
</style>
<g>
	<path class="st0" d="M16.3,24.4c0,0.4,0.4,0.8,0.8,0.8h12.1c0.4,0,0.8-0.4,0.8-0.8s-0.4-0.8-0.8-0.8H17.1
		C16.6,23.6,16.3,24,16.3,24.4L16.3,24.4z M29.2,28H11.3c-0.4,0-0.8,0.4-0.8,0.8c0,0.4,0.4,0.8,0.8,0.8h17.9c0.4,0,0.8-0.4,0.8-0.8
		C30,28.3,29.6,28,29.2,28L29.2,28z M11.9,25C11.9,25,11.9,25,11.9,25C11.9,25,12,25,11.9,25l12.9-12.9c0,0,0,0,0,0c0,0,0,0,0,0
		l2.4-2.4c1-1,1.6-2.3,1.6-3.7c0-1.4-0.6-2.7-1.6-3.7l-0.7-0.7c-1-1-2.3-1.6-3.7-1.6C21.3,0,20,0.6,19,1.6L3.8,16.7c0,0,0,0-0.1,0.1
		c0,0,0,0,0,0c0,0-0.1,0.1-0.1,0.1c0,0,0,0,0,0c0,0,0,0,0,0C1.8,19.2,0.2,27.2,0,28.2c-0.1,0.3,0,0.5,0.2,0.7
		c0.2,0.1,0.3,0.2,0.6,0.2c0.1,0,0.1,0,0.2,0C1.9,28.9,9.7,26.9,11.9,25C11.8,25.1,11.9,25.1,11.9,25L11.9,25z M5.4,17.4L17.2,5.6
		l5.9,5.9L11.3,23.3L5.4,17.4L5.4,17.4z M20.1,2.7c0.7-0.7,1.6-1.1,2.6-1.1s1.9,0.4,2.6,1.1l0.7,0.7C26.7,4.1,27.1,5,27.1,6
		c0,1-0.4,1.9-1.1,2.6l-1.8,1.8l-5.9-5.9L20.1,2.7L20.1,2.7z M4.4,18.7l5.7,5.7c-1.7,1-5.4,2.1-8.3,2.9C2.5,24.3,3.5,20.4,4.4,18.7
		L4.4,18.7z"/>
</g>
</svg>
