<?xml version="1.0" encoding="utf-8"?>
<!-- Generator: Adobe Illustrator 19.0.0, SVG Export Plug-In . SVG Version: 6.00 Build 0)  -->
<svg version="1.1" id="图层_1" xmlns="http://www.w3.org/2000/svg" xmlns:xlink="http://www.w3.org/1999/xlink" x="0px" y="0px"
	 viewBox="0 0 34 34" style="enable-background:new 0 0 34 34;" xml:space="preserve">
<style type="text/css">
	.st0{fill:#145FDC;}
	.st1{fill-rule:evenodd;clip-rule:evenodd;fill:#FFFFFF;}
</style>
<rect id="XMLID_1_" x="0" y="0" class="st0" width="34" height="34"/>
<g id="XMLID_6_">
	<path id="XMLID_4_" class="st1" d="M26.2,13.6c-0.1-1.1-0.2-2.2-0.7-3.2c-0.3-0.6-0.6-1.1-1.1-1.5c-0.4-0.4-0.9-0.8-1.4-1
		c-1.1-0.7-2.4-1.1-5.4-2c-3-0.9-4.8-1.2-4.8-1.2v23l5.1,1.7c0,0,0-12.8,0-19.2V9.9c0-0.6,0.5-1.1,1-1.1h0c0.5,0,1,0.5,1,1.1V10v8.4
		c0.7,0.3,1.9,0.6,2.7,0.6c0.5,0,1.1-0.1,1.5-0.4c0.5-0.3,0.9-0.7,1.2-1.1c0.3-0.5,0.5-1.1,0.6-1.8C26.3,15,26.3,14.3,26.2,13.6
		L26.2,13.6z"/>
	<path id="XMLID_3_" class="st1" d="M6.1,23.5c1.8-0.6,5.7-1.9,5.7-1.9v-3c0,0-4.9,1.6-7.1,2.4c-0.6,0.2-1.1,0.4-1.7,0.6
		c-0.6,0.3-1.2,0.6-1.8,1c-0.2,0.2-0.5,0.4-0.6,0.6c-0.1,0.3-0.1,0.6,0,0.9c0.1,0.3,0.4,0.6,0.6,0.8c0.5,0.4,1.1,0.6,1.7,0.8
		c1.8,0.6,3.8,0.9,5.7,0.9c0.9,0,2.3-0.1,3.2-0.3v-2.7c0,0-0.7,0.2-2.7,0.8c-0.3,0.1-0.6,0.2-0.9,0.3c-0.5,0.1-0.9,0.1-1.4,0.1
		c-0.4,0-0.8,0-1.2-0.2c-0.1-0.1-0.3-0.1-0.4-0.3c-0.1-0.1,0-0.3,0.1-0.3C5.6,23.7,5.9,23.6,6.1,23.5L6.1,23.5z"/>
	<path id="XMLID_2_" class="st1" d="M33.4,22.8c0-0.4-0.2-0.7-0.5-1c-0.5-0.4-1-0.7-1.6-0.9c-0.4-0.1-0.6-0.2-0.9-0.3
		c-1.6-0.5-3.3-0.7-5-0.7c-0.5,0-1.5,0-2,0.1c-1.4,0.2-4.3,1-4.3,1v3.1c0,0,4.3-1.4,6.2-2c0.6-0.2,1.3-0.3,1.9-0.3
		c0.4,0,0.8,0,1.2,0.2c0.1,0.1,0.3,0.1,0.4,0.3c0.1,0.2-0.1,0.3-0.2,0.4c-0.3,0.2-0.7,0.3-1,0.5c-2.6,0.9-8.5,2.9-8.5,2.9v3
		c0,0,7.5-2.5,11-3.8c0.6-0.2,1.1-0.4,1.7-0.7c0.5-0.3,1-0.6,1.4-1C33.3,23.4,33.4,23.1,33.4,22.8L33.4,22.8z"/>
</g>
</svg>
