<?xml version="1.0" encoding="utf-8"?>
<!-- Generator: Adobe Illustrator 19.0.0, SVG Export Plug-In . SVG Version: 6.00 Build 0)  -->
<svg version="1.1" id="图层_1" xmlns="http://www.w3.org/2000/svg" xmlns:xlink="http://www.w3.org/1999/xlink" x="0px" y="0px"
	 viewBox="0 0 38 38" style="enable-background:new 0 0 38 38;" xml:space="preserve">
<style type="text/css">
	.st0{fill-rule:evenodd;clip-rule:evenodd;fill:#FDE8EB;}
	.st1{fill-rule:evenodd;clip-rule:evenodd;fill:#FF6B6A;}
	.st2{fill-rule:evenodd;clip-rule:evenodd;fill:#FFA9B0;}
</style>
<g>
	<path class="st0" d="M0,19c0,10.5,8.5,19,19,19s19-8.5,19-19S29.5,0,19,0S0,8.5,0,19L0,19z"/>
	<path class="st1" d="M22.5,17.5c-2.3-2.5-2.3-5.6-2.3-9.9c-7.1,2.8-5.3,10.4-5.6,12.9c-1.8-1.5-2.3-5.1-2.3-5.1c-2,1-3,3.5-3,5.6
		c0,5.1,4.3,9.4,9.6,9.4s9.6-4.1,9.6-9.4c0-3-2.3-4.6-2.3-8.6C23.1,13.4,22.5,16,22.5,17.5L22.5,17.5z"/>
	<path class="st2" d="M18.7,20c3.3,1.3,2.5,4.8,2.5,5.8c0.8-0.8,1-2.3,1-2.3c0.8,0.5,1.3,1.5,1.3,2.5c0,2.3-2,4.3-4.3,4.3
		c-2.3,0-4.3-2-4.3-4.3C15.2,23.8,18.7,22,18.7,20L18.7,20z"/>
</g>
</svg>
