<?xml version="1.0" encoding="utf-8"?>
<!-- Generator: Adobe Illustrator 19.0.0, SVG Export Plug-In . SVG Version: 6.00 Build 0)  -->
<svg version="1.1" id="图层_2" xmlns="http://www.w3.org/2000/svg" xmlns:xlink="http://www.w3.org/1999/xlink" x="0px" y="0px"
	 viewBox="0 0 48 81.4" style="enable-background:new 0 0 48 81.4;" xml:space="preserve">
<style type="text/css">
	.st0{fill-rule:evenodd;clip-rule:evenodd;fill:url(#SVGID_1_);}
	.st1{fill:url(#SVGID_2_);}
</style>
<g>
	<g>
		<linearGradient id="SVGID_1_" gradientUnits="userSpaceOnUse" x1="10.7189" y1="73.9369" x2="46.2094" y2="12.4658">
			<stop  offset="0" style="stop-color:#FE6844"/>
			<stop  offset="1" style="stop-color:#F79D7E"/>
		</linearGradient>
		<path class="st0" d="M30.4,6c3.5,4,9.2,10.2,12.8,19.7C49.4,42,47.8,52.1,47.8,53c-0.2,11-7.1,20.4-17.1,23.4L18,77
			C7.4,74.6,0,64.7,0,53c0,0-0.4-9.7,6.7-17.9c4.8-5.5,6.1-10.1,7.1-13.4c0.3-1,1.7-1.1,2.1-0.1c2.7,7.3,0.9,13.4,0.6,15.6
			c-0.1,0.6,0.7,0.9,1,0.4c2.6-3.2,9.6-13.6,8.7-29.9c0,0-0.4-5.7-1.7-7.8C24.6,0,28.6,3.8,30.4,6z"/>
	</g>
	<g>
		<g>
			<linearGradient id="SVGID_2_" gradientUnits="userSpaceOnUse" x1="22.5813" y1="76.7232" x2="22.5813" y2="39.6005">
				<stop  offset="0" style="stop-color:#FFFFFF;stop-opacity:0"/>
				<stop  offset="0.1413" style="stop-color:#FFFFFF;stop-opacity:0.1413"/>
				<stop  offset="1" style="stop-color:#FFFFFF"/>
			</linearGradient>
			<path class="st1" d="M20.3,71.1c1.8,1.4-0.9-1.1-1.4-1.9c-2-2.8-2.7-6.3-2.7-9.7c0.1-7.3,6.2-11.9,12.2-15
				c-1.3,0.2-2.6,0.3-3.9,0.5c0.2,0,0.4,0.1,0.6,0.1c-1.2-1.6-2.4-3.2-3.7-4.8c-0.1-1.4,0.3-1.2-0.4,0.2c-0.4,0.7-0.7,1.5-0.9,2.3
				c-0.7,2-1,4.2-1.2,6.3c-0.2,4.3,0.8,8.5,3.4,12c1.8,2.4,8.3,6.3,5.7,9.1c-0.4,0.4-1,0.7-1.5,1c0.1-0.1,1.4,0-0.5-0.1
				C24.4,71,21.9,71.8,20.3,71.1c-5.8-2.6-10.9,6-5,8.6c8.2,3.7,22.5,1.4,23.7-9.4c0.8-7.2-4.7-9.9-8.4-14.8
				c-1.8-2.3-1.9-5.3-1.3-8.1c0.5-2.5,2.4-4.5,2.2-7.1c-0.2-2.1-1.4-4.4-3.7-4.8c-4.7-1-9.6,3.2-13,6.2c-4.4,3.8-7.7,8.9-8.4,14.8
				c-1,8.5,1.8,18,8.9,23.3C20.4,83.6,25.3,74.9,20.3,71.1z"/>
		</g>
	</g>
</g>
</svg>
