<?xml version="1.0" encoding="utf-8"?>
<!-- Generator: Adobe Illustrator 19.0.0, SVG Export Plug-In . SVG Version: 6.00 Build 0)  -->
<svg version="1.1" id="图层_1" xmlns="http://www.w3.org/2000/svg" xmlns:xlink="http://www.w3.org/1999/xlink" x="0px" y="0px"
	 viewBox="0 0 32 33.9" style="enable-background:new 0 0 32 33.9;" xml:space="preserve">
<style type="text/css">
	.st0{fill-rule:evenodd;clip-rule:evenodd;fill:#999999;}
</style>
<g>
	<path class="st0" d="M31,5.8H1c-0.5,0-1-0.4-1-1c0-0.5,0.4-1,1-1H31c0.5,0,1,0.4,1,1C32,5.4,31.6,5.8,31,5.8L31,5.8L31,5.8
		 M21.3,1.9H10.7c-0.5,0-1-0.4-1-1c0-0.5,0.4-1,1-1h10.7c0.5,0,1,0.4,1,1C22.3,1.5,21.9,1.9,21.3,1.9L21.3,1.9L21.3,1.9 M11.6,27.2
		V10.7c0-0.5,0.4-1,1-1c0.5,0,1,0.4,1,1v16.5c0,0.5-0.4,1-1,1C12.1,28.1,11.6,27.7,11.6,27.2L11.6,27.2L11.6,27.2 M18.4,27.2V10.7
		c0-0.5,0.4-1,1-1c0.5,0,1,0.4,1,1v16.5c0,0.5-0.4,1-1,1C18.9,28.1,18.4,27.7,18.4,27.2L18.4,27.2L18.4,27.2 M4.8,8.7
		c0.5,0,1,0.4,1,1v1.1v3.7v15.5c0,1.1,0.9,1.9,1.9,1.9h16.5c1.1,0,1.9-0.9,1.9-1.9V14.5v-3.7V9.7c0-0.5,0.4-1,1-1c0.5,0,1,0.4,1,1
		v3.9v1V31c0,1.6-1.3,2.9-2.9,2.9H6.8c-1.6,0-2.9-1.3-2.9-2.9V16.3v-1.8v-1V9.7C3.9,9.2,4.3,8.7,4.8,8.7L4.8,8.7L4.8,8.7 M4.8,8.7
		L4.8,8.7z"/>
</g>
</svg>
