<?xml version="1.0" encoding="utf-8"?>
<!-- Generator: Adobe Illustrator 19.0.0, SVG Export Plug-In . SVG Version: 6.00 Build 0)  -->
<svg version="1.1" id="图层_1" xmlns="http://www.w3.org/2000/svg" xmlns:xlink="http://www.w3.org/1999/xlink" x="0px" y="0px"
	 viewBox="0 0 30 30" style="enable-background:new 0 0 30 30;" xml:space="preserve">
<style type="text/css">
	.st0{fill-rule:evenodd;clip-rule:evenodd;fill:#145FDC;}
</style>
<g>
	<path class="st0" d="M19.5,30L19.5,30c-0.5,0-1.1-0.2-1.4-0.6c-0.5-0.5-1.9-2-3.2-2c-1.2,0-2.7,1.4-3.1,1.9
		c-0.3,0.4-0.9,0.6-1.4,0.6c-0.3,0-0.5-0.1-0.7-0.2l0,0l-3.7-2.2l0,0c-0.7-0.5-0.9-1.5-0.6-2.3c0,0,0.3-0.8,0.3-1.6
		c0-2.3-1.7-4.1-3.9-4.1H1.6c0,0,0,0,0,0c-0.6,0-1.1-0.6-1.3-1.5C0.3,18.1,0,16.4,0,15c0-1.3,0.3-3,0.3-3.1C0.5,11,1,10.4,1.6,10.4
		h0.1c2.2,0,3.9-1.9,3.9-4.1c0-0.8-0.3-1.6-0.3-1.6C5,3.9,5.2,2.9,5.9,2.5l0,0l3.9-2.3l0,0C10.1,0.1,10.3,0,10.6,0
		c0.5,0,1.1,0.2,1.4,0.6c0.5,0.5,1.9,1.8,3.1,1.8c1.2,0,2.6-1.3,3.1-1.8C18.5,0.3,19,0,19.5,0c0.3,0,0.5,0.1,0.7,0.2l0,0l3.8,2.2
		l0,0c0.7,0.5,0.9,1.5,0.6,2.3c0,0-0.3,0.8-0.3,1.6c0,2.3,1.7,4.1,3.9,4.1h0.1c0.6,0,1.1,0.6,1.3,1.5c0,0.1,0.3,1.8,0.3,3.1
		c0,1.3-0.3,3-0.3,3.1c-0.2,0.9-0.7,1.5-1.3,1.5h-0.1c-2.2,0-3.9,1.9-3.9,4.1c0,0.8,0.3,1.6,0.3,1.6c0.3,0.8,0.1,1.8-0.6,2.3l0,0
		l-3.8,2.2l0,0C20,29.9,19.7,30,19.5,30L19.5,30L19.5,30z M19.4,28.1c0,0,0.1,0,0.1,0c0,0,0,0,0,0l3.6-2.1c-0.1-0.2-0.5-1.2-0.5-2.3
		c0-3.2,2.4-5.8,5.4-6c0-0.3,0.3-1.7,0.3-2.7c0-1.1-0.2-2.5-0.3-2.7c-3-0.2-5.4-2.8-5.4-6c0-1.1,0.4-2.1,0.5-2.3l-3.5-2.1
		c0,0,0,0,0,0c-0.1,0-0.1,0-0.1,0c-0.1,0.1-0.6,0.6-1.3,1.2c-1.1,0.8-2.1,1.2-3,1.2c-0.9,0-2-0.4-3.1-1.2c-0.7-0.6-1.2-1.1-1.3-1.2
		c0,0-0.1,0-0.1,0c0,0,0,0,0,0L6.9,4C7,4.2,7.4,5.2,7.4,6.3c0,3.2-2.4,5.8-5.4,6C2,12.5,1.8,14,1.8,15c0,1.1,0.2,2.5,0.3,2.7
		c3,0.2,5.4,2.8,5.4,6c0,1.1-0.4,2.1-0.5,2.3l3.4,2c0,0,0,0,0,0c0.1,0,0.1,0,0.1,0c0.1-0.1,0.6-0.6,1.3-1.2c1.1-0.9,2.1-1.3,3.1-1.3
		c1,0,2,0.4,3.1,1.3C18.8,27.4,19.3,28,19.4,28.1L19.4,28.1L19.4,28.1z M14.9,20.5c-2.9,0-5.2-2.5-5.2-5.5c0-3,2.3-5.5,5.2-5.5
		c2.9,0,5.2,2.5,5.2,5.5C20.1,18,17.8,20.5,14.9,20.5L14.9,20.5L14.9,20.5z M14.9,11.4c-1.9,0-3.4,1.6-3.4,3.6c0,2,1.5,3.6,3.4,3.6
		c1.9,0,3.4-1.6,3.4-3.6C18.4,13,16.8,11.4,14.9,11.4L14.9,11.4L14.9,11.4z"/>
</g>
</svg>
