<?xml version="1.0" encoding="utf-8"?>
<!-- Generator: Adobe Illustrator 19.0.0, SVG Export Plug-In . SVG Version: 6.00 Build 0)  -->
<svg version="1.1" id="图层_1" xmlns="http://www.w3.org/2000/svg" xmlns:xlink="http://www.w3.org/1999/xlink" x="0px" y="0px"
	 viewBox="0 0 36 33" style="enable-background:new 0 0 36 33;" xml:space="preserve">
<style type="text/css">
	.st0{clip-path:url(#SVGID_2_);fill:#666666;}
</style>
<g>
	<defs>
		<rect id="SVGID_1_" width="36" height="33"/>
	</defs>
	<clipPath id="SVGID_2_">
		<use xlink:href="#SVGID_1_"  style="overflow:visible;"/>
	</clipPath>
	<path class="st0" d="M33.1,31H9.4H4.3c-0.9,0-2.2,0.2-2.3-1.1c-0.1-1.3,0-2.7,0-4v-7.4v-7.1V9.2C2,9.1,2,8.8,2,8.6c0,0,0-0.1,0-0.1
		C1.9,8.4,1.5,9,1.4,9C1.5,9.1,2,9,2.2,9h1.8h5.7h15.2h6.2h2.1c0.4,0,0.8,0.1,1.2,0c0,0,0.1,0,0.2,0c-0.2-0.2-0.4-0.4-0.5-0.5v0
		c0,0,0,0,0,0c0,0,0,0.2,0,0.2c-0.1,0.5,0,1.2,0,1.7v6.5v12.7C34,30.2,33.9,30.9,33.1,31c-1.2,0.1-1.3,2,0,2c1.7-0.1,2.9-1.3,2.9-3
		c0-0.4,0-0.9,0-1.3v-6.4V8.8c0-0.8-0.2-1.6-1.2-1.8C34.6,7,34.3,7,34,7h-4.4H14H2.1C1,7,0.1,7.4,0,8.7c0,1.7,0,3.4,0,5.1v14.7
		c0,1.8,0,3.8,2.2,4.4c1,0.3,2.2,0.1,3.2,0.1h27h0.7C34.3,32.9,34.3,31,33.1,31"/>
	<path class="st0" d="M34.6,7.3H5.5h-3c-0.3,0-0.6,0-0.8,0C1.1,7.4,1.8,7.1,2,7.6c0,0.3,0.1,0.5,0.1,0.8c-0.1,0.3-0.2,0.3,0,0
		C2.3,8.2,2.4,8,2.6,7.8c0.5-0.6,1-1.2,1.5-1.8C5.1,4.9,6,3.7,7,2.6C7.5,2,8,2,8.7,2h3.5h10.4h4c0.7,0,1.6-0.2,2.2,0.4
		c1,0.9,1.8,2.1,2.6,3.1c0.6,0.7,1.2,1.4,1.8,2.1c0.2,0.2,0.4,0.5,0.6,0.7c0.2,0.3,0.2,0.5,0.1,0.1c0-0.3,0.1-0.5,0.1-0.8
		c0,0,0.1-0.1,0.1-0.1c-1.2,0.5-0.2,2.2,1,1.7c1.7-0.7,0-2.4-0.7-3.2c-1.1-1.3-2.2-2.6-3.3-3.8c-0.9-1-1.6-2-3.1-2.1
		c-0.7,0-1.3,0-2,0C20.1,0,14.2,0,8.3,0c-1.1,0-2,0.4-2.7,1.2c-1,1.1-2,2.3-2.9,3.4C2,5.5,1.1,6.3,0.5,7.3c-0.8,1.2,0.3,2,1.4,2
		h16.5c5.3,0,10.7,0.1,16,0c0.1,0,0.2,0,0.3,0C35.8,9.3,35.9,7.3,34.6,7.3"/>
	<path class="st0" d="M6.5,19.6c2.5,2.6,5,5.2,7.5,7.8c0.4,0.4,1,0.4,1.4,0c4.1-3.9,8.3-7.9,12.4-11.8c0.6-0.6,1.2-1.1,1.8-1.7
		c0.9-0.9-0.5-2.3-1.4-1.4c-4.1,3.9-8.3,7.9-12.4,11.8c-0.6,0.6-1.2,1.1-1.8,1.7h1.4c-2.5-2.6-5-5.2-7.5-7.8
		C7,17.3,5.6,18.6,6.5,19.6"/>
</g>
</svg>
