<?xml version="1.0" encoding="utf-8"?>
<!-- Generator: Adobe Illustrator 19.0.0, SVG Export Plug-In . SVG Version: 6.00 Build 0)  -->
<svg version="1.1" id="图层_1" xmlns="http://www.w3.org/2000/svg" xmlns:xlink="http://www.w3.org/1999/xlink" x="0px" y="0px"
	 viewBox="0 0 30 30" style="enable-background:new 0 0 30 30;" xml:space="preserve">
<style type="text/css">
	.st0{clip-path:url(#SVGID_2_);fill:#999999;}
</style>
<g>
	<defs>
		<rect id="SVGID_1_" width="30" height="30"/>
	</defs>
	<clipPath id="SVGID_2_">
		<use xlink:href="#SVGID_1_"  style="overflow:visible;"/>
	</clipPath>
	<path class="st0" d="M25.2,13.5c0,4.9-3.1,9.4-7.7,11c-4.7,1.7-9.9,0.2-13.1-3.6c-3.2-3.8-3.5-9.4-1-13.6C6,3.2,11,1,15.8,2
		C21.3,3.1,25.2,7.9,25.2,13.5c0,1.1,1.7,1.1,1.7,0c0-5.6-3.6-10.7-8.9-12.7c-5.3-2-11.5-0.2-15,4.1C-0.5,9.3-1,15.6,1.9,20.5
		c2.9,4.8,8.6,7.3,14.2,6.3c6.3-1.2,10.8-6.9,10.9-13.2C27,12.4,25.2,12.4,25.2,13.5"/>
	<path class="st0" d="M21.8,23.1c2.2,2.2,4.4,4.4,6.7,6.7c0.8,0.8,2-0.4,1.2-1.2c-2.2-2.2-4.4-4.4-6.7-6.7
		C22.3,21.1,21,22.3,21.8,23.1"/>
</g>
</svg>
