<?xml version="1.0" encoding="utf-8"?>
<!-- Generator: Adobe Illustrator 19.0.0, SVG Export Plug-In . SVG Version: 6.00 Build 0)  -->
<svg version="1.1" id="图层_1" xmlns="http://www.w3.org/2000/svg" xmlns:xlink="http://www.w3.org/1999/xlink" x="0px" y="0px"
	 viewBox="0 0 110 126.5" style="enable-background:new 0 0 110 126.5;" xml:space="preserve">
<style type="text/css">
	.st0{fill:#2A51DD;}
	.st1{fill:#4187F7;}
	.st2{clip-path:url(#SVGID_2_);fill-rule:evenodd;clip-rule:evenodd;fill:#FFFFFF;}
</style>
<polygon class="st0" points="54.9,0 0.5,31.5 0.4,94.8 54.9,126.5 109.9,94.9 110,31.7 "/>
<path class="st1" d="M0,94.4l54.9-32.1L0.1,31.4L0,94.4z M54.9,62.3l54.8,32.1l-0.1-63L54.9,62.3z"/>
<g>
	<defs>
		<rect id="SVGID_1_" y="0" width="110" height="126.5"/>
	</defs>
	<clipPath id="SVGID_2_">
		<use xlink:href="#SVGID_1_"  style="overflow:visible;"/>
	</clipPath>
	<path class="st2" d="M54.8,36.7c8.6,0,15.6,7,15.6,15.6c0,8.6-7,15.6-15.6,15.6c-8.6,0-15.6-7-15.6-15.6
		C39.2,43.7,46.2,36.7,54.8,36.7 M54.8,27.9c-13.5,0-24.4,10.9-24.4,24.5c0,13.5,10.9,24.5,24.5,24.5h0c13.5,0,24.4-11,24.4-24.5
		C79.3,38.8,68.4,27.9,54.8,27.9L54.8,27.9L54.8,27.9 M77.9,83.8H31.8h0c-4,0-7.3,3.3-7.3,7.3v3.3h60.6v-3.3
		C85.2,87.1,81.9,83.8,77.9,83.8L77.9,83.8"/>
</g>
</svg>
