<?xml version="1.0" encoding="utf-8"?>
<!-- Generator: Adobe Illustrator 19.0.0, SVG Export Plug-In . SVG Version: 6.00 Build 0)  -->
<svg version="1.1" id="图层_1" xmlns="http://www.w3.org/2000/svg" xmlns:xlink="http://www.w3.org/1999/xlink" x="0px" y="0px"
	 viewBox="0 0 68 68" style="enable-background:new 0 0 68 68;" xml:space="preserve">
<style type="text/css">
	.st0{fill-rule:evenodd;clip-rule:evenodd;fill:#56B74A;}
	.st1{fill-rule:evenodd;clip-rule:evenodd;fill:#FFFFFF;}
</style>
<g>
	<path class="st0" d="M52.7,68H15.3C6.9,68,0,61.1,0,52.7V15.3C0,6.9,6.9,0,15.3,0h37.4C61.1,0,68,6.9,68,15.3v37.4
		C68,61.1,61.1,68,52.7,68L52.7,68z"/>
	<path class="st1" d="M26.3,42.5l-5.6-16.4l7.9,6l25.1-11.5c-4.3-5.3-11.5-8.7-19.6-8.7c-13.2,0-23.9,9.1-23.9,20.4
		c0,6.9,4,13,10.2,16.7l-2,6.9l8.3-4.2c2.3,0.6,4.8,1,7.4,1c13.2,0,23.9-9.1,23.9-20.4c0-3.4-1-6.5-2.7-9.3L26.3,42.5L26.3,42.5z"/>
</g>
</svg>
