<?xml version="1.0" encoding="utf-8"?>
<!-- Generator: Adobe Illustrator 19.0.0, SVG Export Plug-In . SVG Version: 6.00 Build 0)  -->
<svg version="1.1" id="图层_1" xmlns="http://www.w3.org/2000/svg" xmlns:xlink="http://www.w3.org/1999/xlink" x="0px" y="0px"
	 viewBox="0 0 45 38.1" style="enable-background:new 0 0 45 38.1;" xml:space="preserve">
<style type="text/css">
	.st0{fill-rule:evenodd;clip-rule:evenodd;fill:#999999;}
</style>
<g>
	<path class="st0" d="M25.6,23.2c-1.4,0-2.5-1.1-2.5-2.5c0-1.4,1.1-2.5,2.5-2.5c1.4,0,2.5,1.1,2.5,2.5C28.1,22.1,27,23.2,25.6,23.2
		L25.6,23.2z M45,25c0-6.4-5.7-11.6-12.9-12.1c-0.3,0-0.7,0-1,0c-7.7,0-13.9,5.4-13.9,12.1c0,1,0.1,2,0.4,2.9
		c1.5,5.3,7,9.2,13.5,9.2c2.2,0,4.3-0.5,6.2-1.3l3.1,2.1c0,0,0.8,0.6,0.8-0.5l-0.9-3.3C43.2,31.9,45,28.6,45,25L45,25z M31.1,11.9
		c0.3,0,0.6,0,0.9,0C30.9,5.2,24.2,0,16.1,0C7.2,0,0,6.3,0,14c0,4.3,2.2,8.2,5.8,10.7l-1.2,4.5c0,0-0.4,1.5,1.1,0.8l4.4-3
		c1.8,0.6,3.9,1,6,1c0.2,0,0.4,0,0.5,0c-0.3-1-0.4-2-0.4-3C16.2,17.8,22.9,11.9,31.1,11.9L31.1,11.9z M37.5,23.2
		c-1.4,0-2.5-1.1-2.5-2.5c0-1.4,1.1-2.5,2.5-2.5c1.4,0,2.5,1.1,2.5,2.5C39.9,22.1,38.8,23.2,37.5,23.2L37.5,23.2z M8.5,12.1
		c-1.4,0-2.5-1.1-2.5-2.5c0-1.4,1.1-2.5,2.5-2.5c1.4,0,2.5,1.1,2.5,2.5C11,11,9.9,12.1,8.5,12.1L8.5,12.1z M23.1,12.1
		c-1.4,0-2.5-1.1-2.5-2.5c0-1.4,1.1-2.5,2.5-2.5c1.4,0,2.5,1.1,2.5,2.5C25.5,11,24.4,12.1,23.1,12.1L23.1,12.1z"/>
</g>
</svg>
