<?xml version="1.0" encoding="utf-8"?>
<!-- Generator: Adobe Illustrator 19.0.0, SVG Export Plug-In . SVG Version: 6.00 Build 0)  -->
<svg version="1.1" id="图层_1" xmlns="http://www.w3.org/2000/svg" xmlns:xlink="http://www.w3.org/1999/xlink" x="0px" y="0px"
	 viewBox="0 0 34 34" style="enable-background:new 0 0 34 34;" xml:space="preserve">
<style type="text/css">
	.st0{fill:#FE0002;}
	.st1{fill:#FFFFFF;}
</style>
<rect id="XMLID_1_" x="0" y="0" class="st0" width="34" height="34"/>
<g id="XMLID_3_">
	<path id="XMLID_4_" class="st1" d="M5.5,15.4l1.6,5.4l1.4-5c0.2-0.5,0.3-0.9,0.3-1.1c0.1-0.2,0.2-0.4,0.4-0.5s0.5-0.3,0.8-0.3
		c0.4,0,0.6,0.1,0.8,0.3s0.3,0.4,0.4,0.6c0.1,0.2,0.2,0.6,0.3,1.1l1.4,5l1.6-5.4c0.1-0.4,0.2-0.7,0.3-0.8c0.1-0.2,0.2-0.3,0.3-0.5
		c0.2-0.1,0.4-0.2,0.7-0.2c0.3,0,0.5,0.1,0.7,0.3s0.3,0.4,0.3,0.7c0,0.2-0.1,0.6-0.3,1.1l-2,5.8c-0.2,0.5-0.3,0.8-0.4,1.1
		c-0.1,0.2-0.2,0.4-0.4,0.6c-0.2,0.2-0.5,0.3-0.8,0.3c-0.4,0-0.7-0.1-0.9-0.3c-0.2-0.2-0.4-0.4-0.5-0.7c-0.1-0.3-0.2-0.6-0.3-1
		L10.1,17l-1.3,4.7c-0.2,0.7-0.4,1.1-0.6,1.5s-0.6,0.5-1.1,0.5c-0.3,0-0.5-0.1-0.7-0.2c-0.2-0.1-0.3-0.3-0.5-0.4
		c-0.1-0.2-0.2-0.4-0.3-0.7c-0.1-0.3-0.2-0.5-0.2-0.6L3.4,16c-0.2-0.5-0.3-0.9-0.3-1.1c0-0.3,0.1-0.5,0.3-0.7s0.5-0.3,0.8-0.3
		c0.4,0,0.7,0.1,0.8,0.3C5.2,14.5,5.3,14.8,5.5,15.4z"/>
	<path id="XMLID_6_" class="st1" d="M19.9,12.8c-0.3,0-0.6-0.1-0.9-0.3c-0.2-0.2-0.4-0.5-0.4-0.9c0-0.3,0.1-0.6,0.4-0.8
		c0.2-0.2,0.5-0.3,0.9-0.3c0.3,0,0.6,0.1,0.8,0.3c0.2,0.2,0.4,0.5,0.4,0.9c0,0.4-0.1,0.7-0.4,0.9C20.5,12.7,20.2,12.8,19.9,12.8z
		 M21.1,15.3v7c0,0.5-0.1,0.8-0.3,1.1c-0.2,0.2-0.5,0.4-0.9,0.4s-0.6-0.1-0.9-0.4c-0.2-0.3-0.3-0.6-0.3-1.1v-6.9
		c0-0.5,0.1-0.8,0.3-1.1c0.2-0.2,0.5-0.4,0.9-0.4s0.6,0.1,0.9,0.4C20.9,14.5,21.1,14.8,21.1,15.3z"/>
	<path id="XMLID_9_" class="st1" d="M23.5,22.2V11.8c0-0.5,0.1-0.8,0.3-1.1c0.2-0.2,0.5-0.4,0.9-0.4c0.4,0,0.7,0.1,0.9,0.4
		c0.2,0.2,0.3,0.6,0.3,1.1v10.4c0,0.5-0.1,0.9-0.3,1.1c-0.2,0.2-0.5,0.4-0.9,0.4c-0.4,0-0.6-0.1-0.9-0.4
		C23.7,23,23.5,22.7,23.5,22.2z"/>
	<path id="XMLID_11_" class="st1" d="M28.4,22.2V11.8c0-0.5,0.1-0.8,0.3-1.1c0.2-0.2,0.5-0.4,0.9-0.4c0.4,0,0.7,0.1,0.9,0.4
		c0.2,0.2,0.3,0.6,0.3,1.1v10.4c0,0.5-0.1,0.9-0.3,1.1c-0.2,0.2-0.5,0.4-0.9,0.4c-0.4,0-0.6-0.1-0.9-0.4
		C28.5,23,28.4,22.7,28.4,22.2z"/>
</g>
</svg>
