<?xml version="1.0" encoding="utf-8"?>
<!-- Generator: Adobe Illustrator 19.0.0, SVG Export Plug-In . SVG Version: 6.00 Build 0)  -->
<svg version="1.1" id="图层_1" xmlns="http://www.w3.org/2000/svg" xmlns:xlink="http://www.w3.org/1999/xlink" x="0px" y="0px"
	 viewBox="0 0 50 48.5" style="enable-background:new 0 0 50 48.5;" xml:space="preserve">
<style type="text/css">
	.st0{clip-path:url(#SVGID_2_);fill:#666666;}
</style>
<g>
	<defs>
		<rect id="SVGID_1_" width="50" height="48.5"/>
	</defs>
	<clipPath id="SVGID_2_">
		<use xlink:href="#SVGID_1_"  style="overflow:visible;"/>
	</clipPath>
	<path class="st0" d="M35.4,13.4c-0.1,4.3-2.7,8.3-6.8,9.8c-4.1,1.5-8.8,0.2-11.6-3.1c-2.8-3.3-3.1-8.3-0.9-12
		c2.2-3.7,6.7-5.7,10.9-4.9C31.9,4.2,35.3,8.5,35.4,13.4c0,2,3.1,2,3,0c-0.1-5.7-3.6-10.8-9-12.7c-5.2-1.9-11.3-0.1-14.8,4.2
		c-3.5,4.3-4.1,10.6-1.2,15.4c2.9,4.8,8.5,7.3,14,6.3c6.4-1.1,10.9-6.9,11-13.2C38.5,11.5,35.4,11.5,35.4,13.4"/>
	<path class="st0" d="M3,47.1c0.1-8.7,6.1-16.2,14.3-19c8.5-2.9,18.4-0.7,24.5,6c3.3,3.6,5.1,8.2,5.1,13.1c0,2,3.1,2,3,0
		c-0.1-10.1-7.1-18.8-16.5-22c-9.6-3.3-20.9-0.6-27.7,7C2.1,36.2,0,41.5,0,47.1C0,49,3,49,3,47.1"/>
</g>
</svg>
