<?xml version="1.0" encoding="utf-8"?>
<!-- Generator: Adobe Illustrator 19.0.0, SVG Export Plug-In . SVG Version: 6.00 Build 0)  -->
<svg version="1.1" id="图层_1" xmlns="http://www.w3.org/2000/svg" xmlns:xlink="http://www.w3.org/1999/xlink" x="0px" y="0px"
	 viewBox="0 0 50 48.5" style="enable-background:new 0 0 50 48.5;" xml:space="preserve">
<style type="text/css">
	.st0{clip-path:url(#SVGID_2_);fill-rule:evenodd;clip-rule:evenodd;fill:#145FDC;}
</style>
<g>
	<defs>
		<rect id="SVGID_1_" width="50" height="48.5"/>
	</defs>
	<clipPath id="SVGID_2_">
		<use xlink:href="#SVGID_1_"  style="overflow:visible;"/>
	</clipPath>
	<path class="st0" d="M33.5,25.1c-0.4-0.1-0.8-0.3-1.2-0.4c3.7-2.4,6-6.6,6.1-11.1c0-0.1,0-0.1,0-0.2c-0.1-5.7-3.6-10.8-9-12.7
		c-5.2-1.9-11.3-0.1-14.8,4.2c-3.5,4.3-4.1,10.6-1.2,15.4c1.1,1.8,2.6,3.3,4.3,4.4C13.2,26,9,28.5,5.8,32.1C2.1,36.2,0,41.5,0,47.1
		c0,1,0.8,1.5,1.5,1.5h46.9c0.8,0,1.5-0.5,1.5-1.5C49.9,36.9,42.9,28.3,33.5,25.1"/>
</g>
</svg>
