<?xml version="1.0" encoding="utf-8"?>
<!-- Generator: Adobe Illustrator 19.0.0, SVG Export Plug-In . SVG Version: 6.00 Build 0)  -->
<svg version="1.1" id="图层_1" xmlns="http://www.w3.org/2000/svg" xmlns:xlink="http://www.w3.org/1999/xlink" x="0px" y="0px"
	 viewBox="0 0 44 44" style="enable-background:new 0 0 44 44;" xml:space="preserve">
<style type="text/css">
	.st0{fill-rule:evenodd;clip-rule:evenodd;fill:#FFFFFF;}
</style>
<g>
	<path class="st0" d="M43.6,21l-1-1L22.8,0.4c-0.5-0.5-1.5-0.5-2,0c-0.5,0.5-0.5,1.5,0,2l18.4,18.2H1.4C0.6,20.6,0,21.3,0,22
		c0,0.7,0.6,1.4,1.4,1.4h37.8L20.9,41.6c-0.5,0.5-0.5,1.5,0,2c0.5,0.5,1.5,0.5,2,0L42.7,24l1-1C44.1,22.5,44.1,21.5,43.6,21L43.6,21
		z"/>
</g>
</svg>
