<?xml version="1.0" encoding="utf-8"?>
<!-- Generator: Adobe Illustrator 19.0.0, SVG Export Plug-In . SVG Version: 6.00 Build 0)  -->
<svg version="1.1" id="图层_1" xmlns="http://www.w3.org/2000/svg" xmlns:xlink="http://www.w3.org/1999/xlink" x="0px" y="0px"
	 viewBox="0 0 149.8 24" style="enable-background:new 0 0 149.8 24;" xml:space="preserve">
<style type="text/css">
	.st0{fill-rule:evenodd;clip-rule:evenodd;fill:#ffd02b;}
</style>
<g>
	<path class="st0" d="M24.5,11.1l-4.6,4c-0.3,0.3-0.4,0.7-0.4,1.1l1.1,6.4c0.1,0.5,0,0.9-0.4,1.2C20,23.9,19.7,24,19.5,24
		c-0.2,0-0.4-0.1-0.6-0.2L13,20.7c-0.4-0.2-0.8-0.2-1.1,0l-5.6,3.2c-0.5,0.2-1,0.2-1.4-0.1c-0.4-0.3-0.7-0.7-0.7-1.2L5.6,16
		c0.1-0.4-0.1-0.8-0.4-1.1l-4.8-3.9C0,10.7-0.1,10.2,0.1,9.7c0.2-0.5,0.6-0.8,1.1-0.9l6.3-1.1C7.8,7.6,8.2,7.3,8.4,7l2.9-6.2
		C11.5,0.3,12,0,12.5,0c0.5,0,1,0.3,1.2,0.8L16.5,7c0.2,0.4,0.5,0.6,0.9,0.7l6.4,1.1c0.5,0.1,0.9,0.4,1.1,0.9
		C25,10.2,24.9,10.7,24.5,11.1L24.5,11.1L24.5,11.1L24.5,11.1z"/>
	<path class="st0" d="M55.7,11.1l-4.6,4c-0.3,0.3-0.4,0.7-0.4,1.1l1.1,6.4c0.1,0.5,0,0.9-0.4,1.2c-0.2,0.2-0.5,0.3-0.8,0.3
		c-0.2,0-0.4-0.1-0.6-0.2l-5.8-3.2c-0.4-0.2-0.8-0.2-1.1,0l-5.6,3.2c-0.5,0.2-1,0.2-1.4-0.1c-0.4-0.3-0.7-0.7-0.7-1.2l1.3-6.5
		c0.1-0.4-0.1-0.8-0.4-1.1l-4.8-3.9c-0.4-0.4-0.5-0.9-0.3-1.4c0.2-0.5,0.6-0.8,1.1-0.9l6.3-1.1C39,7.6,39.4,7.3,39.6,7l2.9-6.2
		C42.7,0.3,43.2,0,43.7,0c0.5,0,1,0.3,1.2,0.8L47.7,7c0.2,0.4,0.5,0.6,0.9,0.7L55,8.8c0.5,0.1,0.9,0.4,1.1,0.9
		C56.2,10.2,56.1,10.7,55.7,11.1L55.7,11.1L55.7,11.1L55.7,11.1z"/>
	<path class="st0" d="M86.9,11.1l-4.6,4c-0.3,0.3-0.4,0.7-0.4,1.1l1.1,6.4c0.1,0.5,0,0.9-0.4,1.2c-0.2,0.2-0.5,0.3-0.8,0.3
		c-0.2,0-0.4-0.1-0.6-0.2l-5.8-3.2c-0.4-0.2-0.8-0.2-1.1,0l-5.6,3.2c-0.5,0.2-1,0.2-1.4-0.1c-0.4-0.3-0.7-0.7-0.7-1.2L68,16
		c0.1-0.4-0.1-0.8-0.4-1.1l-4.8-3.9c-0.4-0.4-0.5-0.9-0.3-1.4c0.2-0.5,0.6-0.8,1.1-0.9l6.3-1.1c0.4-0.1,0.7-0.3,0.9-0.7l2.9-6.2
		C73.9,0.3,74.4,0,74.9,0s1,0.3,1.2,0.8L78.9,7c0.2,0.4,0.5,0.6,0.9,0.7l6.4,1.1c0.5,0.1,0.9,0.4,1.1,0.9
		C87.4,10.2,87.3,10.7,86.9,11.1L86.9,11.1L86.9,11.1L86.9,11.1z"/>
	<path class="st0" d="M118.2,11.1l-4.6,4c-0.3,0.3-0.4,0.7-0.4,1.1l1.1,6.4c0.1,0.5,0,0.9-0.4,1.2c-0.2,0.2-0.5,0.3-0.8,0.3
		c-0.2,0-0.4-0.1-0.6-0.2l-5.8-3.2c-0.4-0.2-0.8-0.2-1.1,0l-5.6,3.2c-0.5,0.2-1,0.2-1.4-0.1c-0.4-0.3-0.7-0.7-0.7-1.2l1.3-6.5
		c0.1-0.4-0.1-0.8-0.4-1.1L94,11.1c-0.4-0.4-0.5-0.9-0.3-1.4c0.2-0.5,0.6-0.8,1.1-0.9l6.3-1.1c0.4-0.1,0.7-0.3,0.9-0.7l2.9-6.2
		c0.2-0.5,0.7-0.8,1.2-0.8s1,0.3,1.2,0.8l2.8,6.2c0.2,0.4,0.5,0.6,0.9,0.7l6.4,1.1c0.5,0.1,0.9,0.4,1.1,0.9
		C118.7,10.2,118.5,10.7,118.2,11.1L118.2,11.1L118.2,11.1L118.2,11.1z"/>
	<path class="st0" d="M149.4,11.1l-4.6,4c-0.3,0.3-0.4,0.7-0.4,1.1l1.1,6.4c0.1,0.5,0,0.9-0.4,1.2c-0.2,0.2-0.5,0.3-0.8,0.3
		c-0.2,0-0.4-0.1-0.6-0.2l-5.8-3.2c-0.4-0.2-0.8-0.2-1.1,0l-5.6,3.2c-0.5,0.2-1,0.2-1.4-0.1c-0.4-0.3-0.7-0.7-0.7-1.2l1.3-6.5
		c0.1-0.4-0.1-0.8-0.4-1.1l-4.8-3.9c-0.4-0.4-0.5-0.9-0.3-1.4c0.2-0.5,0.6-0.8,1.1-0.9l6.3-1.1c0.4-0.1,0.7-0.3,0.9-0.7l2.9-6.2
		c0.2-0.5,0.7-0.8,1.2-0.8c0.5,0,1,0.3,1.2,0.8l2.8,6.2c0.2,0.4,0.5,0.6,0.9,0.7l6.4,1.1c0.5,0.1,0.9,0.4,1.1,0.9
		C149.9,10.2,149.7,10.7,149.4,11.1L149.4,11.1L149.4,11.1L149.4,11.1z"/>
</g>
</svg>
