<?xml version="1.0" encoding="utf-8"?>
<!-- Generator: Adobe Illustrator 19.0.0, SVG Export Plug-In . SVG Version: 6.00 Build 0)  -->
<svg version="1.1" id="图层_2" xmlns="http://www.w3.org/2000/svg" xmlns:xlink="http://www.w3.org/1999/xlink" x="0px" y="0px"
	 viewBox="0 0 76 74" style="enable-background:new 0 0 76 74;" xml:space="preserve">
<style type="text/css">
	.st0{fill:url(#SVGID_1_);}
	.st1{fill:#FFFFFF;}
</style>
<g>
	<linearGradient id="SVGID_1_" gradientUnits="userSpaceOnUse" x1="38" y1="74" x2="38" y2="0">
		<stop  offset="0" style="stop-color:#5471FF"/>
		<stop  offset="1" style="stop-color:#21D4FD"/>
	</linearGradient>
	<path class="st0" d="M39,0.7l11.1,23L75,27.4c1,0.1,1.3,1.3,0.6,2l-18,17.9l4.2,25.3c0.2,1-0.8,1.7-1.7,1.3L38,61.9L15.8,73.9
		c-0.9,0.5-1.9-0.3-1.7-1.3l4.2-25.3l-18-17.9c-0.7-0.7-0.3-1.9,0.6-2l24.8-3.7L37,0.7C37.4-0.2,38.6-0.2,39,0.7z"/>
	<g>
		<g>
			<path class="st1" d="M33.2,53.6c0-3.5,0-6.9,0-10.4c0-2.3,0-4.6,0-6.9c0-0.6,0.1-1.5,0-2.1c-0.3-1.1,0.8,0.2-0.8,0.2
				c-1.4-0.8-2.9-1.7-4.3-2.5c3.7,8,7.4,16.1,11.1,24.1c0.7,1.6,2.7,2.5,4.3,2.5c7.9,0,9.4-7,9.4-13.3c0-5.3,0-10.5,0-15.8
				c0-6.4-10-6.4-10,0c0,3.5,0,6.9,0,10.4c0,2.3,0,4.6,0,6.9c0,0.6-0.1,1.5,0,2.1c0.3,1.1-0.7-0.2,0.6-0.2c1.4,0.8,2.9,1.7,4.3,2.5
				c-3.7-8-7.4-16.1-11.1-24.1c-0.7-1.6-2.7-2.5-4.3-2.5c-7.8,0-9.2,7.2-9.2,13.3c0,5.3,0,10.5,0,15.8C23.2,60,33.2,60,33.2,53.6
				L33.2,53.6z"/>
		</g>
	</g>
</g>
</svg>
