<?xml version="1.0" encoding="utf-8"?>
<!-- Generator: Adobe Illustrator 19.0.0, SVG Export Plug-In . SVG Version: 6.00 Build 0)  -->
<svg version="1.1" id="图层_1" xmlns="http://www.w3.org/2000/svg" xmlns:xlink="http://www.w3.org/1999/xlink" x="0px" y="0px"
	 viewBox="0 0 37 35.1" style="enable-background:new 0 0 37 35.1;" xml:space="preserve">
<style type="text/css">
	.st0{clip-path:url(#SVGID_2_);fill:#666666;}
</style>
<g>
	<defs>
		<rect id="SVGID_1_" width="37" height="35.1"/>
	</defs>
	<clipPath id="SVGID_2_">
		<use xlink:href="#SVGID_1_"  style="overflow:visible;"/>
	</clipPath>
	<path class="st0" d="M25.9,9.6c0,3.1-2,6-4.9,7.1c-3,1.1-6.4,0.2-8.4-2.2c-2-2.4-2.3-6-0.7-8.7c1.6-2.7,4.8-4.2,7.9-3.6
		C23.2,2.8,25.8,5.9,25.9,9.6c0,1.3,2,1.3,2,0c-0.1-4-2.6-7.6-6.4-9c-3.7-1.3-8-0.1-10.5,2.9c-2.5,3.1-2.9,7.6-0.8,11
		c2.1,3.4,6.1,5.2,10.1,4.4c4.5-0.9,7.6-4.9,7.7-9.4C27.9,8.3,25.9,8.3,25.9,9.6"/>
	<path class="st0" d="M2,34.1c0-5.1,2.9-9.7,7.2-12.4c5.2-3.2,11.8-3.4,17.2-0.6c1.1,0.6,2.2-1.1,1-1.7c-8.9-4.6-20.9-1.8-25.6,7.4
		C0.6,29.1,0,31.5,0,34.1C0,35.4,2,35.4,2,34.1"/>
	<path class="st0" d="M28.1,29h4.5c1,0,1-1.5,0-1.5h-4.5C27.1,27.5,27.1,29,28.1,29"/>
	<path class="st0" d="M31.1,30.5V26c0-1-1.5-1-1.5,0v4.5C29.6,31.4,31.1,31.5,31.1,30.5"/>
	<path class="st0" d="M35.5,28.2c-0.1,2.8-2.3,5.2-5.2,5.2c-2.8,0-5.2-2.4-5.2-5.2c0-2.8,2.4-5.2,5.2-5.2
		C33.2,23.1,35.4,25.4,35.5,28.2c0,1,1.5,1,1.5,0c-0.1-2.8-1.7-5.3-4.4-6.3c-2.6-1-5.7-0.1-7.5,2c-1.8,2.2-2,5.3-0.6,7.7
		c1.4,2.4,4.3,3.6,7,3.1c3.1-0.6,5.3-3.4,5.4-6.5C37,27.3,35.5,27.3,35.5,28.2"/>
</g>
</svg>
