<?xml version="1.0" encoding="utf-8"?>
<!-- Generator: Adobe Illustrator 19.0.0, SVG Export Plug-In . SVG Version: 6.00 Build 0)  -->
<svg version="1.1" id="图层_1" xmlns="http://www.w3.org/2000/svg" xmlns:xlink="http://www.w3.org/1999/xlink" x="0px" y="0px"
	 viewBox="0 0 62 52.6" style="enable-background:new 0 0 62 52.6;" xml:space="preserve">
<style type="text/css">
	.st0{clip-path:url(#SVGID_2_);fill:#145FDC;}
</style>
<g>
	<defs>
		<rect id="SVGID_1_" width="62" height="52.6"/>
	</defs>
	<clipPath id="SVGID_2_">
		<use xlink:href="#SVGID_1_"  style="overflow:visible;"/>
	</clipPath>
	<path class="st0" d="M28.3,13.3c2.5,0,5.3-0.5,7.4-2.1c2.4-1.8,3.2-5,1.8-7.7C35.8,0.2,32,0,28.7,0h-6c-2.2,0-2.2,3.4,0,3.4h5.6
		c0.8,0,1.6,0,2.5,0c0.3,0,0.9,0.1,0.8,0c1.9,0.3,4,1.6,3.2,3.8c-0.8,2.3-4.4,2.7-6.4,2.7C26.2,9.9,26.2,13.3,28.3,13.3"/>
	<path class="st0" d="M60.6,23.1c-2.6-6.8-8.7-12-16-13c-3.8-0.5-7.7-0.2-11.5-0.2c-4.2,0-8.3,0-12.5,0C14,9.8,7.9,12.9,4,18.2
		c-3.8,5.2-4.8,12.3-3.4,18.6c1.6,7.1,7.1,12.9,14,15c4,1.2,8.3,0.8,12.4,0.8h13.6h0.9C49,52.5,56,48.4,59.5,41.8
		C62.4,36.4,62.8,28.9,60.6,23.1 M21.4,40.9c-4.1,0.7-8.3-1.1-10.4-4.7c-2.1-3.6-1.7-8.2,0.9-11.4c2.6-3.2,7.2-4.4,11.1-2.9
		c3.9,1.5,6.4,5.2,6.5,9.3C29.3,35.9,26.1,40.1,21.4,40.9 M40.6,35.2c-0.1,0-0.2,0-0.3,0c-2.1-0.2-3.8-1.9-3.8-4
		c0-2.2,1.9-4.1,4.1-4.1s4,1.9,4.1,4.1C44.7,33.5,42.8,35.1,40.6,35.2 M50.5,35.2c-0.1,0-0.2,0-0.3,0c-2.1-0.2-3.8-1.9-3.8-4
		c0-2.2,1.9-4.1,4.1-4.1c2.2,0,4,1.9,4.1,4.1C54.6,33.5,52.7,35.1,50.5,35.2"/>
</g>
</svg>
