<?xml version="1.0" encoding="utf-8"?>
<!-- Generator: Adobe Illustrator 19.0.0, SVG Export Plug-In . SVG Version: 6.00 Build 0)  -->
<svg version="1.1" id="图层_1" xmlns="http://www.w3.org/2000/svg" xmlns:xlink="http://www.w3.org/1999/xlink" x="0px" y="0px"
	 viewBox="0 0 62 52.6" style="enable-background:new 0 0 62 52.6;" xml:space="preserve">
<style type="text/css">
	.st0{clip-path:url(#SVGID_2_);fill:#666666;}
</style>
<g>
	<defs>
		<rect id="SVGID_1_" width="62" height="52.6"/>
	</defs>
	<clipPath id="SVGID_2_">
		<use xlink:href="#SVGID_1_"  style="overflow:visible;"/>
	</clipPath>
	<path class="st0" d="M41.6,49.2c-7,0-13.9,0-20.9,0c-5.6,0-10.9-2.5-14.2-7.1c-3.2-4.7-4-11.2-2.5-16.6c1.8-6.3,7.3-11.1,13.8-12.1
		c3.3-0.5,6.8-0.2,10.1-0.2h12.6c5.1,0,9.8,1.6,13.4,5.4c4,4.3,5.2,10.2,4.5,15.9c-0.8,6.5-5.6,12.2-11.9,14.1
		C44.9,48.9,43.3,49.2,41.6,49.2c-2.2,0-2.2,3.4,0,3.4C49,52.5,56,48.4,59.5,41.8c2.9-5.4,3.4-13,1.2-18.8c-2.6-6.8-8.7-12-16-13
		c-3.8-0.5-7.7-0.2-11.5-0.2c-4.2,0-8.3,0-12.5,0C14,9.8,7.9,12.9,4,18.2c-3.8,5.2-4.8,12.3-3.4,18.6c1.6,7.1,7.1,12.9,14,15
		c4,1.2,8.3,0.8,12.4,0.8h13.6h0.9C43.8,52.5,43.8,49.2,41.6,49.2"/>
	<path class="st0" d="M40.6,32.7c-2,0-2-3.1,0-3.1C42.6,29.6,42.6,32.6,40.6,32.7c-1.6,0.1-1.6,2.6,0,2.5c2.2-0.1,4.1-1.8,4.1-4.1
		c0-2.2-1.9-4.1-4.1-4.1c-2.2,0-4,1.9-4.1,4.1c0,2.2,1.9,4.1,4.1,4.1C42.2,35.2,42.3,32.7,40.6,32.7"/>
	<path class="st0" d="M50.5,32.7c-2,0-2-3.1,0-3.1C52.5,29.6,52.5,32.6,50.5,32.7c-1.6,0.1-1.6,2.6,0,2.5c2.2-0.1,4.1-1.8,4.1-4.1
		c0-2.2-1.9-4.1-4.1-4.1c-2.2,0-4,1.9-4.1,4.1c0,2.2,1.9,4.1,4.1,4.1C52.1,35.2,52.1,32.7,50.5,32.7"/>
	<path class="st0" d="M28.3,13.3c2.5,0,5.3-0.5,7.4-2.1c2.4-1.8,3.2-5,1.8-7.7C35.8,0.2,32,0,28.7,0h-6c-2.2,0-2.2,3.4,0,3.4h5.6
		c0.8,0,1.6,0,2.5,0c0.3,0,0.9,0.1,0.8,0c1.9,0.3,4,1.6,3.2,3.8c-0.8,2.3-4.4,2.7-6.4,2.7C26.2,9.9,26.2,13.3,28.3,13.3"/>
	<path class="st0" d="M26.5,31.2c-0.1,3.8-3.1,7-7,7c-3.8,0-7-3.2-7-7c0-3.8,3.2-7,7-7C23.4,24.2,26.4,27.4,26.5,31.2
		c0,2.2,3.4,2.2,3.4,0c-0.1-4.3-2.7-8.2-6.8-9.7c-4-1.5-8.8-0.2-11.5,3.1c-2.8,3.3-3.2,8.2-1,11.9c2.2,3.7,6.6,5.7,10.9,4.9
		c4.9-0.9,8.3-5.3,8.4-10.1C29.9,29,26.6,29,26.5,31.2"/>
</g>
</svg>
