<?xml version="1.0" encoding="utf-8"?>
<!-- Generator: Adobe Illustrator 19.0.0, SVG Export Plug-In . SVG Version: 6.00 Build 0)  -->
<svg version="1.1" id="图层_1" xmlns="http://www.w3.org/2000/svg" xmlns:xlink="http://www.w3.org/1999/xlink" x="0px" y="0px"
	 viewBox="0 0 21 22.3" style="enable-background:new 0 0 21 22.3;" xml:space="preserve">
<style type="text/css">
	.st0{fill-rule:evenodd;clip-rule:evenodd;fill:#999999;}
</style>
<g>
	<path class="st0" d="M19.8,19.8c0,1.4-1.1,2.5-2.5,2.5H7.4c0,0,0,0,0,0H4.3c0,0,0,0,0,0H0V8.7h4.3c0.1,0,0.2,0,0.2,0
		c0.8-2.2,1.9-5.3,2.3-6.3C7.5,0.8,8.2,0.2,9.3,0c1.1-0.2,4.6,1.4,3.5,5.7c-0.1,0.4-0.3,1.1-0.4,1.7h6.8c1.4,0,1.9,1.1,1.9,2.5
		L19.8,19.8L19.8,19.8z M3.7,9.9H1.3l0,0V21l0,0v0h2.5v0h0.6l0,0V10l0-0.1c0,0,0,0,0,0C4.2,9.9,3.8,9.9,3.7,9.9L3.7,9.9z M18.5,8.7
		h-7.7L11.7,5c0.5-2.3-1.3-3.6-1.9-3.7C9.5,1.2,8.5,1.4,8,2.5C7.7,3.2,6.3,7.1,5.5,9.2c0,0,0,0,0,0.1V21l0,0H8v0l0,0h9.3
		c0.7,0,1.2-0.6,1.2-1.2l1.2-9.9C19.8,9.2,19.2,8.7,18.5,8.7L18.5,8.7z"/>
</g>
</svg>
