<?xml version="1.0" encoding="utf-8"?>
<!-- Generator: Adobe Illustrator 19.0.0, SVG Export Plug-In . SVG Version: 6.00 Build 0)  -->
<svg version="1.1" id="图层_1" xmlns="http://www.w3.org/2000/svg" xmlns:xlink="http://www.w3.org/1999/xlink" x="0px" y="0px"
	 viewBox="0 0 68 68" style="enable-background:new 0 0 68 68;" xml:space="preserve">
<style type="text/css">
	.st0{fill-rule:evenodd;clip-rule:evenodd;fill:#07A0F8;}
</style>
<g>
	<path class="st0" d="M3.4,43.4c-0.6,3,1.2,10.1,12.4,10.1c6.9,0,13.6-4.2,19-11.3c-7.7-3.8-14.1-5.6-21.3-5.6
		C7.3,36.6,4,40.4,3.4,43.4L3.4,43.4z"/>
	<path class="st0" d="M17,58.5c-10.6,0-17.7-6.5-16.9-14.6C0.7,38.7,4.3,30.1,20,31.5c8.3,0.8,12,2.3,18.8,4.5
		c1.7-3.2,3.2-6.7,4.3-10.5H13.2v-3H28v-5.3H10v-3.3h18V6.4c0,0,0.2-1.2,1.5-1.2h7.4v8.9h19.2v3.3H36.9v5.3h15.7
		c-1.4,5.9-3.6,11.3-6.4,16c3.4,1.2,15.7,5.1,21.8,6.9V9.8C68,4.4,63.6,0,58.2,0H9.8C4.4,0,0,4.4,0,9.8v48.3C0,63.6,4.4,68,9.8,68
		h48.3c5.4,0,9.8-4.4,9.8-9.8v-0.9c-6.5-2.8-19.3-8.4-26.5-11.9C34.7,53.6,27.7,58.5,17,58.5L17,58.5z"/>
</g>
</svg>
