<?xml version="1.0" encoding="utf-8"?>
<!-- Generator: Adobe Illustrator 19.0.0, SVG Export Plug-In . SVG Version: 6.00 Build 0)  -->
<svg version="1.1" id="图层_2" xmlns="http://www.w3.org/2000/svg" xmlns:xlink="http://www.w3.org/1999/xlink" x="0px" y="0px"
	 viewBox="0 0 84 70" style="enable-background:new 0 0 84 70;" xml:space="preserve">
<style type="text/css">
	.st0{fill:url(#SVGID_1_);}
	.st1{fill:#FFFFFF;}
	.st2{fill:url(#SVGID_2_);}
	.st3{fill:url(#SVGID_3_);}
	.st4{fill:url(#SVGID_4_);}
	.st5{fill:url(#SVGID_5_);}
</style>
<g>
	
		<linearGradient id="SVGID_1_" gradientUnits="userSpaceOnUse" x1="20.7307" y1="7.8082" x2="70.2281" y2="57.3057" gradientTransform="matrix(0.7071 0.7071 -0.7071 0.7071 32.8624 -20.18)">
		<stop  offset="0" style="stop-color:#4F92FF"/>
		<stop  offset="1" style="stop-color:#2458FF"/>
	</linearGradient>
	<polygon class="st0" points="0,70 42,0 84,70 	"/>
	<g>
		<path class="st1" d="M28.2,62.5h-1.9c-0.3,0-0.6-0.3-0.6-0.6l0.4-18.5c0-0.3,0.3-0.6,0.6-0.6h1.9c0.3,0,0.6,0.3,0.6,0.6l-0.4,18.5
			C28.7,62.2,28.5,62.5,28.2,62.5z"/>
		<path class="st1" d="M36.5,43.3h1.9c0.3,0,0.6,0.3,0.6,0.6l0.4,18.5c0,0.3-0.3,0.6-0.6,0.6h-1.9c-0.3,0-0.6-0.3-0.6-0.6l-0.4-18.5
			C35.9,43.6,36.2,43.3,36.5,43.3z"/>
		<path class="st1" d="M55.8,63c-0.9-0.1-1.3-0.3-2-1c-0.6-0.6-0.9-1.4-0.9-2.4V34.2c0-0.3-0.2-0.5-0.5-0.5h-5.8
			c-0.3,0-0.5,0.2-0.5,0.5v25.1l-0.9,3h-2.5l0-4.6V33.2c0-1.4,1.1-2.5,2.5-2.5h0.1H48h5.7c1.4,0,2.5,1.1,2.5,2.5v26
			c0,0.3,0.1,0.5,0.3,0.7c0.2,0.2,0.4,0.2,0.7,0.2l1.1,0c0.3,0,0.5,0.3,0.4,0.5l-0.7,1.8c-0.1,0.3-0.5,0.6-0.9,0.6h-0.4H55.8z"/>
		<path class="st1" d="M33.4,34.5l-1.7,0.2c-0.5,0.1-0.8,0.1-0.8,0.5v27.1c0,0.4,0.4,0.7,0.8,0.7h1.7c0.4,0,0.8-0.3,0.8-0.7V34.7
			C34.2,34.3,33.8,34.5,33.4,34.5z"/>
		<path class="st1" d="M25.7,38.5v1.9c0,0.3,0.3,0.6,0.6,0.6h12.5c0.3,0,0.6-0.3,0.6-0.6v-1.9c0-0.3-0.3-0.6-0.6-0.6H26.3
			C26,37.9,25.7,38.2,25.7,38.5z"/>
		<linearGradient id="SVGID_2_" gradientUnits="userSpaceOnUse" x1="42.6846" y1="39.1733" x2="51.4314" y2="39.1733">
			<stop  offset="0" style="stop-color:#60B3FF"/>
			<stop  offset="1" style="stop-color:#35FFFF"/>
		</linearGradient>
		<path class="st2" d="M42.7,38.6v1.1c0,0.7,0.5,1.2,1.1,1.2h6.6c0.6,0,1.1-0.5,1.1-1.2v-1.1c0-0.7-0.5-1.2-1.1-1.2h-6.6
			C43.2,37.4,42.7,37.9,42.7,38.6z"/>
		<linearGradient id="SVGID_3_" gradientUnits="userSpaceOnUse" x1="42.6846" y1="47.2156" x2="51.4314" y2="47.2156">
			<stop  offset="0" style="stop-color:#60B3FF"/>
			<stop  offset="1" style="stop-color:#35FFFF"/>
		</linearGradient>
		<path class="st3" d="M42.7,46.6v1.1c0,0.7,0.5,1.2,1.1,1.2h6.6c0.6,0,1.1-0.5,1.1-1.2v-1.1c0-0.7-0.5-1.2-1.1-1.2h-6.6
			C43.2,45.4,42.7,46,42.7,46.6z"/>
		<linearGradient id="SVGID_4_" gradientUnits="userSpaceOnUse" x1="25.3141" y1="33.2361" x2="39.2565" y2="33.2361">
			<stop  offset="0" style="stop-color:#60B3FF"/>
			<stop  offset="1" style="stop-color:#35FFFF"/>
		</linearGradient>
		<path class="st4" d="M25.3,33.7v0.7c0,0.7,0.6,1.3,1.3,1.3H29c0.3,0,0.5,0,0.8-0.1l8.4-1.6c0.6-0.1,1-0.6,1-1.2v-0.7
			c0-0.8-0.7-1.4-1.5-1.2l-9.1,1.6h-2.1C25.9,32.4,25.3,33,25.3,33.7z"/>
		<linearGradient id="SVGID_5_" gradientUnits="userSpaceOnUse" x1="40.7103" y1="61.2129" x2="51.4314" y2="61.2129">
			<stop  offset="0" style="stop-color:#60B3FF"/>
			<stop  offset="1" style="stop-color:#35FFFF"/>
		</linearGradient>
		<path class="st5" d="M49.6,63h-7.1c-1,0-1.8-0.8-1.8-1.8v0c0-1,0.8-1.8,1.8-1.8h7.1c1,0,1.8,0.8,1.8,1.8v0
			C51.4,62.2,50.6,63,49.6,63z"/>
	</g>
</g>
</svg>
