<?xml version="1.0" encoding="utf-8"?>
<!-- Generator: Adobe Illustrator 19.0.0, SVG Export Plug-In . SVG Version: 6.00 Build 0)  -->
<svg version="1.1" id="图层_1" xmlns="http://www.w3.org/2000/svg" xmlns:xlink="http://www.w3.org/1999/xlink" x="0px" y="0px"
	 viewBox="0 0 57 52.4" style="enable-background:new 0 0 57 52.4;" xml:space="preserve">
<style type="text/css">
	.st0{clip-path:url(#SVGID_2_);fill:#145FDC;}
	.st1{clip-path:url(#SVGID_2_);fill:#FFFFFF;}
</style>
<g>
	<defs>
		<rect id="SVGID_1_" width="57" height="52.4"/>
	</defs>
	<clipPath id="SVGID_2_">
		<use xlink:href="#SVGID_1_"  style="overflow:visible;"/>
	</clipPath>
	<path class="st0" d="M56.5,23.2c-7.3-6.6-14.7-13.3-22-19.9c-1.3-1.2-2.6-2.6-4.3-3.1c-2.8-0.8-4.9,0.6-6.8,2.3
		c-4,3.6-8,7.3-12.1,10.9L0.5,23.2c-1.5,1.4,0.7,3.6,2.2,2.2c0.1-0.1,0.2-0.2,0.3-0.3v17.7c0,1.1,0,2.1,0,3.2c0.1,2.7,1.8,5,4.4,5.9
		c2.1,0.7,4.8,0.3,6.9,0.3h25.8c2.4,0,4.9,0,7.3,0c2.4,0,4.7-1.1,5.9-3.3c0.7-1.3,0.7-2.6,0.7-4V25.2c0.1,0.1,0.2,0.2,0.3,0.3
		C55.8,26.8,58,24.6,56.5,23.2"/>
	<path class="st1" d="M35.3,49.2H21.7V29c0-0.7,0.5-1.2,1.2-1.2h11.1c0.7,0,1.2,0.5,1.2,1.2V49.2z"/>
</g>
</svg>
