<?xml version="1.0" encoding="utf-8"?>
<!-- Generator: Adobe Illustrator 19.0.0, SVG Export Plug-In . SVG Version: 6.00 Build 0)  -->
<svg version="1.1" id="图层_1" xmlns="http://www.w3.org/2000/svg" xmlns:xlink="http://www.w3.org/1999/xlink" x="0px" y="0px"
	 viewBox="0 0 57 52.3" style="enable-background:new 0 0 57 52.3;" xml:space="preserve">
<style type="text/css">
	.st0{clip-path:url(#SVGID_2_);fill:#666666;}
</style>
<g>
	<defs>
		<rect id="SVGID_1_" width="57" height="52.3"/>
	</defs>
	<clipPath id="SVGID_2_">
		<use xlink:href="#SVGID_1_"  style="overflow:visible;"/>
	</clipPath>
	<path class="st0" d="M50.8,30.4c0,5.2,0.1,10.4,0,15.6c0,2.5-2.1,3.1-4.2,3.1H40H19.3h-7.8c-1.8,0-4,0.2-5-1.7
		c-0.4-0.9-0.3-2.1-0.3-3.1v-5.5v-8.4c0-2-3.2-2-3.2,0c0,5.3-0.2,10.5,0,15.8c0.1,3.8,3.3,6.1,6.9,6.1c2.1,0,4.3,0,6.4,0h21.8H46
		c2.7,0,5.5-0.4,7-3c0.8-1.4,0.9-2.9,0.9-4.4v-5.3v-9.2C54,28.4,50.8,28.4,50.8,30.4"/>
	<path class="st0" d="M2.7,25.5C9.9,19,17,12.6,24.2,6.1C25.1,5.3,26,4.2,27,3.6c2-1.2,3.5,0.4,4.8,1.6c4,3.7,8.1,7.3,12.1,11
		c3.4,3.1,6.9,6.2,10.3,9.3c1.5,1.4,3.8-0.9,2.2-2.2c-7.3-6.6-14.7-13.3-22-19.9c-1.3-1.2-2.6-2.6-4.3-3.1c-2.8-0.8-4.9,0.6-6.8,2.3
		c-4,3.6-8,7.3-12.1,10.9C7.7,16.7,4.1,20,0.5,23.2C-1,24.6,1.2,26.8,2.7,25.5"/>
	<path class="st0" d="M35.5,49H21.2l1.6,1.6V30.7v-2.8l-1.6,1.6h14.3l-1.6-1.6v19.9v2.8c0,2,3.2,2,3.2,0V30.7v-2.8
		c0-0.9-0.7-1.6-1.6-1.6H21.2c-0.9,0-1.6,0.7-1.6,1.6v19.9v2.8c0,0.9,0.7,1.6,1.6,1.6h14.3C37.5,52.2,37.6,49,35.5,49"/>
</g>
</svg>
