<?xml version="1.0" encoding="utf-8"?>
<!-- Generator: Adobe Illustrator 19.0.0, SVG Export Plug-In . SVG Version: 6.00 Build 0)  -->
<svg version="1.1" id="图层_1" xmlns="http://www.w3.org/2000/svg" xmlns:xlink="http://www.w3.org/1999/xlink" x="0px" y="0px"
	 viewBox="0 0 40 45.8" style="enable-background:new 0 0 40 45.8;" xml:space="preserve">
<style type="text/css">
	.st0{fill:#2D2DEA;}
	.st1{clip-path:url(#SVGID_2_);fill:#2D2DEA;}
</style>
<rect x="22.7" y="21.5" class="st0" width="4.9" height="3"/>
<g>
	<defs>
		<rect id="SVGID_1_" width="40" height="45.8"/>
	</defs>
	<clipPath id="SVGID_2_">
		<use xlink:href="#SVGID_1_"  style="overflow:visible;"/>
	</clipPath>
	<path class="st1" d="M40,12c-0.1-1-1.1-1.3-1.9-1.8l-9.6-5.6l-7.9-4.6C20.4,0.1,20.2,0,20,0c0,0,0,0,0,0c0,0,0,0,0,0
		c-0.2,0-0.4,0-0.6,0.2C13.8,3.4,8.3,6.6,2.7,9.8C2,10.2,1.2,10.5,0.6,11C-0.2,11.6,0,12.6,0,13.5v11.1v9.1c0,0.4,0.2,0.8,0.6,1
		c5.5,3.2,11,6.3,16.5,9.5c0.8,0.4,1.6,0.9,2.3,1.3c0.4,0.2,0.8,0.2,1.2,0c5.5-3.2,11-6.3,16.5-9.5c0.8-0.4,1.6-0.9,2.3-1.3
		c0.4-0.2,0.6-0.6,0.6-1V14.5C40,13.7,40.1,12.8,40,12 M9.8,33.1H7.5l0.5-11.2h2.2L9.8,33.1z M13.8,33.1h-3V20.8H7.5v-2.4h3.3V16
		l-3.2,0.4v-2.5l9-1.1v2.5l-2.9,0.4v2.8h3.3v2.4h-3.3V33.1z M15,33.1l-0.5-11.2h2.2l0.5,11.2H15z M32.5,33.1H17.8v-2.8h1V13h1h2.9
		h5.7c0.4,0,0.8,0.1,1.2,0.2c0.4,0.2,0.7,0.4,1,0.7c0.3,0.3,0.5,0.6,0.7,1c0.2,0.4,0.3,0.8,0.3,1.2v14.1h1V33.1z"/>
	<rect x="22.7" y="27.2" class="st1" width="4.9" height="3"/>
	<path class="st1" d="M26.7,15.7h-4v3.1h4.9v-2.2c0-0.3-0.1-0.5-0.3-0.7C27.2,15.8,27,15.7,26.7,15.7"/>
</g>
</svg>
