<?xml version="1.0" encoding="utf-8"?>
<!-- Generator: Adobe Illustrator 19.0.0, SVG Export Plug-In . SVG Version: 6.00 Build 0)  -->
<svg version="1.1" id="图层_1" xmlns="http://www.w3.org/2000/svg" xmlns:xlink="http://www.w3.org/1999/xlink" x="0px" y="0px"
	 viewBox="0 0 36 38.4" style="enable-background:new 0 0 36 38.4;" xml:space="preserve">
<style type="text/css">
	.st0{clip-path:url(#SVGID_2_);fill:#666666;}
</style>
<g>
	<defs>
		<rect id="SVGID_1_" width="36" height="38.4"/>
	</defs>
	<clipPath id="SVGID_2_">
		<use xlink:href="#SVGID_1_"  style="overflow:visible;"/>
	</clipPath>
	<path class="st0" d="M32.6,36.1H7.4c-1.3,0-2.6,0.1-3.8,0c-1.4-0.1-1.3-1.3-1.3-2.4V19.4v-7.3c0-1.2-0.1-2.4,0-3.6
		C2.4,7.1,4,7.4,5.1,7.4h6H27h5c0.3,0,0.7,0,1.1,0.1c0.7,0.3,0.7,0.9,0.7,1.5c0,8.5,0.2,17.1,0,25.6C33.7,35.4,33.5,36.1,32.6,36.1
		c-1.4,0.1-1.4,2.3,0,2.2c1.9-0.1,3.3-1.5,3.4-3.4c0-0.4,0-0.7,0-1.1v-6.3V11.2c0-1.3,0.2-3-0.3-4.1c-0.9-1.9-2.8-1.9-4.5-1.9h-15
		c-4.2,0-8.3-0.1-12.5,0C1.4,5.2,0,6.7,0,8.9c0,1.7,0,3.4,0,5.2v16.7c0,1.4-0.1,2.8,0,4.2c0.1,2.3,1.9,3.4,4,3.4h27.7h0.8
		C34,38.4,34,36.1,32.6,36.1"/>
	<path class="st0" d="M3.4,2.2h25.5h3.6C34,2.2,34,0,32.6,0H7H3.4C2,0,2,2.2,3.4,2.2"/>
	<path class="st0" d="M1.1,13.9h29.5h4.2c1.4,0,1.4-2.2,0-2.2H5.4H1.1C-0.3,11.6-0.3,13.9,1.1,13.9"/>
	<path class="st0" d="M29.3,20.2H9.5H6.6c-1.4,0-1.4,2.2,0,2.2h19.9h2.8C30.8,22.5,30.8,20.2,29.3,20.2"/>
	<path class="st0" d="M6.6,30.4h8.7c1.4,0,1.4-2.2,0-2.2H6.6C5.2,28.2,5.2,30.4,6.6,30.4"/>
</g>
</svg>
